<?xml version="1.0" encoding="UTF-8"?>
<svg xmlns="http://www.w3.org/2000/svg" version="1.1" width="100" height="100" viewBox="0 0 100 100"><rect x="0" y="0" width="100" height="100" fill="#ffffff"/><g transform="scale(3.448)"><g transform="translate(0,0)"><path fill-rule="evenodd" d="M9 0L9 1L8 1L8 2L9 2L9 3L8 3L8 4L10 4L10 7L11 7L11 4L12 4L12 5L13 5L13 6L12 6L12 9L15 9L15 8L17 8L17 9L16 9L16 10L15 10L15 11L14 11L14 10L11 10L11 11L10 11L10 9L11 9L11 8L6 8L6 9L7 9L7 10L5 10L5 12L4 12L4 9L5 9L5 8L0 8L0 9L2 9L2 11L3 11L3 12L4 12L4 13L5 13L5 15L3 15L3 16L2 16L2 18L3 18L3 19L2 19L2 21L8 21L8 23L9 23L9 24L8 24L8 29L9 29L9 28L10 28L10 29L12 29L12 27L13 27L13 26L11 26L11 23L10 23L10 22L9 22L9 20L11 20L11 21L12 21L12 22L13 22L13 23L12 23L12 25L13 25L13 24L14 24L14 25L16 25L16 26L15 26L15 27L14 27L14 28L15 28L15 29L16 29L16 28L15 28L15 27L17 27L17 25L18 25L18 27L19 27L19 25L18 25L18 24L19 24L19 23L20 23L20 25L25 25L25 23L27 23L27 22L28 22L28 21L29 21L29 20L28 20L28 21L27 21L27 20L26 20L26 19L25 19L25 20L24 20L24 19L23 19L23 18L29 18L29 17L28 17L28 16L26 16L26 13L28 13L28 14L29 14L29 13L28 13L28 12L29 12L29 11L27 11L27 10L29 10L29 9L28 9L28 8L27 8L27 10L25 10L25 9L26 9L26 8L25 8L25 9L24 9L24 8L23 8L23 9L22 9L22 8L20 8L20 7L21 7L21 6L20 6L20 7L19 7L19 5L20 5L20 4L21 4L21 2L20 2L20 4L19 4L19 3L17 3L17 1L15 1L15 2L16 2L16 3L17 3L17 4L16 4L16 5L13 5L13 4L15 4L15 3L13 3L13 4L12 4L12 2L13 2L13 1L11 1L11 2L10 2L10 0ZM19 0L19 1L20 1L20 0ZM10 3L10 4L11 4L11 3ZM17 4L17 5L16 5L16 6L15 6L15 7L14 7L14 6L13 6L13 8L15 8L15 7L16 7L16 6L17 6L17 8L18 8L18 6L17 6L17 5L19 5L19 4ZM8 5L8 7L9 7L9 5ZM19 8L19 9L17 9L17 10L16 10L16 11L17 11L17 12L14 12L14 11L12 11L12 13L11 13L11 12L10 12L10 13L8 13L8 14L7 14L7 13L6 13L6 12L7 12L7 11L8 11L8 10L7 10L7 11L6 11L6 12L5 12L5 13L6 13L6 14L7 14L7 15L6 15L6 16L7 16L7 15L8 15L8 14L10 14L10 17L9 17L9 18L8 18L8 20L9 20L9 19L11 19L11 18L13 18L13 19L12 19L12 21L15 21L15 22L16 22L16 21L17 21L17 20L18 20L18 21L20 21L20 20L21 20L21 19L22 19L22 18L21 18L21 17L23 17L23 15L24 15L24 14L22 14L22 15L20 15L20 14L21 14L21 13L26 13L26 12L27 12L27 11L26 11L26 12L21 12L21 11L20 11L20 10L22 10L22 9L20 9L20 8ZM19 9L19 10L17 10L17 11L18 11L18 12L17 12L17 13L16 13L16 14L14 14L14 13L12 13L12 14L13 14L13 15L12 15L12 17L13 17L13 16L14 16L14 17L15 17L15 16L14 16L14 15L16 15L16 16L17 16L17 13L18 13L18 16L20 16L20 17L18 17L18 18L17 18L17 17L16 17L16 18L15 18L15 19L14 19L14 20L15 20L15 21L16 21L16 20L15 20L15 19L19 19L19 18L20 18L20 19L21 19L21 18L20 18L20 17L21 17L21 16L20 16L20 15L19 15L19 14L20 14L20 13L21 13L21 12L20 12L20 13L19 13L19 10L20 10L20 9ZM0 11L0 13L1 13L1 11ZM2 13L2 14L3 14L3 13ZM10 13L10 14L11 14L11 13ZM0 14L0 16L1 16L1 14ZM24 16L24 17L26 17L26 16ZM0 17L0 21L1 21L1 17ZM3 17L3 18L5 18L5 19L4 19L4 20L7 20L7 19L6 19L6 18L7 18L7 17L6 17L6 18L5 18L5 17ZM10 17L10 18L11 18L11 17ZM25 20L25 21L26 21L26 20ZM21 21L21 24L24 24L24 21ZM17 22L17 23L16 23L16 25L17 25L17 24L18 24L18 22ZM22 22L22 23L23 23L23 22ZM14 23L14 24L15 24L15 23ZM28 23L28 24L29 24L29 23ZM9 24L9 25L10 25L10 24ZM26 24L26 25L27 25L27 28L28 28L28 26L29 26L29 25L27 25L27 24ZM10 26L10 28L11 28L11 26ZM21 26L21 27L20 27L20 28L22 28L22 27L23 27L23 28L24 28L24 29L25 29L25 28L26 28L26 27L25 27L25 26ZM17 28L17 29L18 29L18 28ZM0 0L0 7L7 7L7 0ZM1 1L1 6L6 6L6 1ZM2 2L2 5L5 5L5 2ZM22 0L22 7L29 7L29 0ZM23 1L23 6L28 6L28 1ZM24 2L24 5L27 5L27 2ZM0 22L0 29L7 29L7 22ZM1 23L1 28L6 28L6 23ZM2 24L2 27L5 27L5 24Z" fill="#000000"/></g></g></svg>
