<?xml version="1.0" encoding="UTF-8"?>
<svg xmlns="http://www.w3.org/2000/svg" version="1.1" width="100" height="100" viewBox="0 0 100 100"><rect x="0" y="0" width="100" height="100" fill="#ffffff"/><g transform="scale(4)"><g transform="translate(0,0)"><path fill-rule="evenodd" d="M8 0L8 4L9 4L9 3L10 3L10 1L9 1L9 0ZM11 0L11 1L12 1L12 3L11 3L11 4L10 4L10 5L8 5L8 7L9 7L9 9L11 9L11 10L6 10L6 11L8 11L8 12L10 12L10 11L11 11L11 12L12 12L12 13L11 13L11 14L10 14L10 13L9 13L9 14L8 14L8 18L11 18L11 19L8 19L8 21L9 21L9 20L10 20L10 22L11 22L11 23L14 23L14 21L15 21L15 18L14 18L14 17L15 17L15 16L16 16L16 21L17 21L17 22L16 22L16 23L15 23L15 24L14 24L14 25L16 25L16 23L20 23L20 22L21 22L21 24L17 24L17 25L21 25L21 24L22 24L22 25L25 25L25 24L24 24L24 22L22 22L22 21L23 21L23 20L24 20L24 21L25 21L25 20L24 20L24 19L22 19L22 18L21 18L21 17L23 17L23 14L22 14L22 13L24 13L24 11L22 11L22 10L21 10L21 9L25 9L25 8L21 8L21 9L20 9L20 8L19 8L19 9L20 9L20 10L19 10L19 11L18 11L18 9L17 9L17 10L16 10L16 9L15 9L15 8L17 8L17 6L16 6L16 7L15 7L15 5L16 5L16 3L17 3L17 1L16 1L16 0L15 0L15 1L14 1L14 0L13 0L13 1L12 1L12 0ZM13 1L13 3L12 3L12 5L10 5L10 6L9 6L9 7L10 7L10 8L11 8L11 7L12 7L12 6L13 6L13 9L12 9L12 10L13 10L13 9L14 9L14 11L12 11L12 12L13 12L13 13L12 13L12 15L11 15L11 16L12 16L12 17L11 17L11 18L12 18L12 20L11 20L11 21L12 21L12 20L13 20L13 21L14 21L14 18L13 18L13 17L14 17L14 16L15 16L15 15L14 15L14 14L15 14L15 13L14 13L14 12L16 12L16 11L15 11L15 9L14 9L14 6L13 6L13 3L14 3L14 5L15 5L15 3L14 3L14 1ZM15 1L15 2L16 2L16 1ZM10 6L10 7L11 7L11 6ZM0 8L0 10L1 10L1 11L0 11L0 12L1 12L1 13L0 13L0 14L2 14L2 15L3 15L3 16L0 16L0 17L4 17L4 16L5 16L5 13L7 13L7 12L5 12L5 13L4 13L4 12L3 12L3 11L5 11L5 10L3 10L3 9L2 9L2 8ZM4 8L4 9L7 9L7 8ZM2 10L2 11L3 11L3 10ZM20 10L20 13L18 13L18 16L22 16L22 14L21 14L21 15L19 15L19 14L20 14L20 13L22 13L22 11L21 11L21 10ZM17 11L17 12L18 12L18 11ZM2 12L2 14L3 14L3 15L4 15L4 13L3 13L3 12ZM13 13L13 14L14 14L14 13ZM6 14L6 15L7 15L7 14ZM16 14L16 16L17 16L17 14ZM9 15L9 16L10 16L10 15ZM6 16L6 17L7 17L7 16ZM24 16L24 18L25 18L25 16ZM17 17L17 20L20 20L20 17ZM18 18L18 19L19 19L19 18ZM21 19L21 20L22 20L22 19ZM8 23L8 25L10 25L10 24L9 24L9 23ZM0 0L0 7L7 7L7 0ZM1 1L1 6L6 6L6 1ZM2 2L2 5L5 5L5 2ZM18 0L18 7L25 7L25 0ZM19 1L19 6L24 6L24 1ZM20 2L20 5L23 5L23 2ZM0 18L0 25L7 25L7 18ZM1 19L1 24L6 24L6 19ZM2 20L2 23L5 23L5 20Z" fill="#000000"/></g></g></svg>
