<?xml version="1.0" encoding="UTF-8"?>
<svg xmlns="http://www.w3.org/2000/svg" version="1.1" width="100" height="100" viewBox="0 0 100 100"><rect x="0" y="0" width="100" height="100" fill="#ffffff"/><g transform="scale(3.448)"><g transform="translate(0,0)"><path fill-rule="evenodd" d="M9 0L9 1L8 1L8 2L9 2L9 3L8 3L8 4L10 4L10 7L11 7L11 4L12 4L12 5L13 5L13 4L14 4L14 3L15 3L15 4L16 4L16 5L15 5L15 6L14 6L14 7L15 7L15 9L16 9L16 7L17 7L17 6L16 6L16 5L17 5L17 4L18 4L18 8L19 8L19 5L20 5L20 9L18 9L18 10L15 10L15 11L14 11L14 8L13 8L13 6L12 6L12 9L13 9L13 10L11 10L11 11L10 11L10 9L11 9L11 8L6 8L6 9L5 9L5 8L0 8L0 10L1 10L1 9L4 9L4 11L3 11L3 10L2 10L2 11L0 11L0 21L1 21L1 17L2 17L2 16L1 16L1 15L3 15L3 14L4 14L4 16L5 16L5 15L7 15L7 16L6 16L6 17L3 17L3 18L2 18L2 20L3 20L3 21L5 21L5 20L6 20L6 21L7 21L7 20L9 20L9 21L8 21L8 23L9 23L9 22L10 22L10 24L8 24L8 29L9 29L9 27L10 27L10 28L11 28L11 29L12 29L12 27L13 27L13 26L11 26L11 27L10 27L10 26L9 26L9 25L11 25L11 22L10 22L10 21L12 21L12 22L13 22L13 23L12 23L12 25L13 25L13 24L14 24L14 25L15 25L15 24L14 24L14 23L16 23L16 24L17 24L17 25L16 25L16 26L15 26L15 27L14 27L14 28L15 28L15 29L16 29L16 28L15 28L15 27L17 27L17 25L18 25L18 27L19 27L19 28L22 28L22 27L25 27L25 28L26 28L26 29L27 29L27 28L28 28L28 26L29 26L29 24L26 24L26 22L28 22L28 21L25 21L25 20L26 20L26 19L25 19L25 17L22 17L22 14L23 14L23 16L24 16L24 14L25 14L25 13L27 13L27 14L26 14L26 15L27 15L27 16L26 16L26 17L27 17L27 18L29 18L29 16L28 16L28 15L27 15L27 14L29 14L29 12L28 12L28 13L27 13L27 12L26 12L26 8L25 8L25 9L24 9L24 8L23 8L23 9L22 9L22 8L21 8L21 5L20 5L20 4L21 4L21 3L20 3L20 4L19 4L19 1L20 1L20 2L21 2L21 1L20 1L20 0L19 0L19 1L17 1L17 0L16 0L16 1L15 1L15 2L14 2L14 1L11 1L11 2L10 2L10 0ZM16 1L16 2L15 2L15 3L16 3L16 4L17 4L17 3L18 3L18 2L17 2L17 1ZM12 2L12 4L13 4L13 3L14 3L14 2ZM16 2L16 3L17 3L17 2ZM10 3L10 4L11 4L11 3ZM8 5L8 7L9 7L9 5ZM15 6L15 7L16 7L16 6ZM27 8L27 10L29 10L29 9L28 9L28 8ZM6 9L6 10L8 10L8 11L6 11L6 12L8 12L8 13L5 13L5 11L4 11L4 12L2 12L2 13L5 13L5 14L8 14L8 17L9 17L9 18L7 18L7 17L6 17L6 18L7 18L7 19L6 19L6 20L7 20L7 19L9 19L9 20L10 20L10 17L11 17L11 18L13 18L13 19L12 19L12 21L14 21L14 22L16 22L16 21L17 21L17 22L18 22L18 21L20 21L20 20L21 20L21 19L20 19L20 18L21 18L21 17L20 17L20 16L21 16L21 13L20 13L20 11L21 11L21 12L22 12L22 13L23 13L23 12L24 12L24 13L25 13L25 10L22 10L22 11L21 11L21 9L20 9L20 10L19 10L19 11L17 11L17 12L16 12L16 11L15 11L15 12L14 12L14 11L12 11L12 13L11 13L11 12L10 12L10 13L9 13L9 10L8 10L8 9ZM13 12L13 13L12 13L12 14L13 14L13 13L14 13L14 14L15 14L15 15L14 15L14 16L13 16L13 15L12 15L12 17L13 17L13 18L15 18L15 20L17 20L17 21L18 21L18 20L17 20L17 19L16 19L16 18L17 18L17 17L18 17L18 19L19 19L19 18L20 18L20 17L18 17L18 16L20 16L20 15L19 15L19 14L20 14L20 13L18 13L18 12L17 12L17 13L16 13L16 14L15 14L15 13L14 13L14 12ZM10 13L10 14L9 14L9 15L10 15L10 16L11 16L11 15L10 15L10 14L11 14L11 13ZM16 14L16 15L17 15L17 16L14 16L14 17L15 17L15 18L16 18L16 17L17 17L17 16L18 16L18 14ZM27 16L27 17L28 17L28 16ZM4 18L4 19L3 19L3 20L5 20L5 18ZM22 18L22 20L23 20L23 19L24 19L24 18ZM21 21L21 24L24 24L24 21ZM22 22L22 23L23 23L23 22ZM17 23L17 24L18 24L18 25L20 25L20 23ZM25 24L25 25L22 25L22 26L19 26L19 27L22 27L22 26L25 26L25 25L26 25L26 28L27 28L27 25L26 25L26 24ZM17 28L17 29L18 29L18 28ZM23 28L23 29L24 29L24 28ZM0 0L0 7L7 7L7 0ZM1 1L1 6L6 6L6 1ZM2 2L2 5L5 5L5 2ZM22 0L22 7L29 7L29 0ZM23 1L23 6L28 6L28 1ZM24 2L24 5L27 5L27 2ZM0 22L0 29L7 29L7 22ZM1 23L1 28L6 28L6 23ZM2 24L2 27L5 27L5 24Z" fill="#000000"/></g></g></svg>
