<?xml version="1.0" encoding="UTF-8"?>
<svg xmlns="http://www.w3.org/2000/svg" version="1.1" width="100" height="100" viewBox="0 0 100 100"><rect x="0" y="0" width="100" height="100" fill="#ffffff"/><g transform="scale(4)"><g transform="translate(0,0)"><path fill-rule="evenodd" d="M9 0L9 1L8 1L8 2L9 2L9 3L8 3L8 4L9 4L9 5L8 5L8 7L9 7L9 8L6 8L6 9L5 9L5 8L0 8L0 9L1 9L1 12L0 12L0 17L1 17L1 12L3 12L3 13L2 13L2 15L3 15L3 17L8 17L8 19L9 19L9 18L10 18L10 19L11 19L11 20L8 20L8 25L10 25L10 24L11 24L11 22L10 22L10 21L12 21L12 20L13 20L13 21L14 21L14 22L12 22L12 25L14 25L14 24L13 24L13 23L14 23L14 22L15 22L15 24L17 24L17 23L18 23L18 22L19 22L19 25L22 25L22 24L20 24L20 22L21 22L21 23L22 23L22 21L23 21L23 22L24 22L24 24L23 24L23 25L25 25L25 21L24 21L24 19L25 19L25 14L23 14L23 16L22 16L22 17L21 17L21 16L20 16L20 13L24 13L24 12L25 12L25 10L23 10L23 9L24 9L24 8L23 8L23 9L22 9L22 8L21 8L21 9L22 9L22 10L23 10L23 11L24 11L24 12L21 12L21 10L20 10L20 8L19 8L19 10L17 10L17 11L18 11L18 12L17 12L17 13L19 13L19 16L18 16L18 14L17 14L17 16L16 16L16 14L15 14L15 13L16 13L16 10L15 10L15 9L18 9L18 8L16 8L16 7L17 7L17 5L15 5L15 4L17 4L17 3L15 3L15 2L17 2L17 1L15 1L15 0L14 0L14 1L15 1L15 2L14 2L14 3L13 3L13 2L9 2L9 1L12 1L12 0ZM9 3L9 4L10 4L10 6L9 6L9 7L10 7L10 6L11 6L11 7L12 7L12 8L10 8L10 9L9 9L9 11L6 11L6 10L7 10L7 9L6 9L6 10L5 10L5 9L4 9L4 10L3 10L3 9L2 9L2 11L3 11L3 12L4 12L4 14L3 14L3 15L5 15L5 13L6 13L6 14L8 14L8 15L6 15L6 16L8 16L8 17L12 17L12 18L11 18L11 19L12 19L12 18L13 18L13 20L14 20L14 21L15 21L15 22L16 22L16 23L17 23L17 21L15 21L15 20L14 20L14 19L16 19L16 18L14 18L14 17L15 17L15 16L14 16L14 13L15 13L15 11L14 11L14 9L15 9L15 7L16 7L16 6L15 6L15 5L14 5L14 4L15 4L15 3L14 3L14 4L12 4L12 3L11 3L11 4L10 4L10 3ZM11 4L11 5L12 5L12 7L13 7L13 6L14 6L14 7L15 7L15 6L14 6L14 5L12 5L12 4ZM12 8L12 9L11 9L11 10L10 10L10 11L11 11L11 10L12 10L12 9L14 9L14 8ZM4 10L4 11L5 11L5 12L6 12L6 13L7 13L7 12L6 12L6 11L5 11L5 10ZM19 10L19 11L20 11L20 10ZM8 12L8 14L10 14L10 13L11 13L11 14L12 14L12 13L14 13L14 12ZM19 12L19 13L20 13L20 12ZM8 15L8 16L11 16L11 15ZM12 15L12 17L14 17L14 16L13 16L13 15ZM17 17L17 20L20 20L20 17ZM22 17L22 18L24 18L24 17ZM18 18L18 19L19 19L19 18ZM22 19L22 20L23 20L23 19ZM19 21L19 22L20 22L20 21ZM9 23L9 24L10 24L10 23ZM0 0L0 7L7 7L7 0ZM1 1L1 6L6 6L6 1ZM2 2L2 5L5 5L5 2ZM18 0L18 7L25 7L25 0ZM19 1L19 6L24 6L24 1ZM20 2L20 5L23 5L23 2ZM0 18L0 25L7 25L7 18ZM1 19L1 24L6 24L6 19ZM2 20L2 23L5 23L5 20Z" fill="#000000"/></g></g></svg>
