<?xml version="1.0" encoding="UTF-8"?>
<svg xmlns="http://www.w3.org/2000/svg" version="1.1" width="100" height="100" viewBox="0 0 100 100"><rect x="0" y="0" width="100" height="100" fill="#ffffff"/><g transform="scale(4)"><g transform="translate(0,0)"><path fill-rule="evenodd" d="M9 0L9 1L8 1L8 2L9 2L9 3L8 3L8 4L9 4L9 5L8 5L8 7L9 7L9 8L6 8L6 9L7 9L7 10L5 10L5 8L0 8L0 10L1 10L1 12L0 12L0 17L1 17L1 13L2 13L2 14L5 14L5 15L9 15L9 14L10 14L10 13L11 13L11 14L12 14L12 13L14 13L14 16L13 16L13 15L12 15L12 17L11 17L11 15L10 15L10 16L6 16L6 17L8 17L8 19L9 19L9 20L8 20L8 25L11 25L11 23L10 23L10 22L11 22L11 21L12 21L12 20L13 20L13 21L14 21L14 23L16 23L16 24L17 24L17 25L19 25L19 23L20 23L20 22L19 22L19 21L22 21L22 22L21 22L21 25L25 25L25 21L24 21L24 19L25 19L25 16L24 16L24 15L25 15L25 14L22 14L22 13L25 13L25 10L24 10L24 8L23 8L23 10L22 10L22 8L21 8L21 10L20 10L20 8L19 8L19 10L17 10L17 14L15 14L15 13L16 13L16 10L15 10L15 9L18 9L18 8L16 8L16 7L17 7L17 5L15 5L15 4L17 4L17 3L15 3L15 2L17 2L17 1L15 1L15 0L14 0L14 1L15 1L15 2L14 2L14 3L13 3L13 2L9 2L9 1L12 1L12 0ZM9 3L9 4L10 4L10 6L9 6L9 7L10 7L10 6L11 6L11 7L12 7L12 8L10 8L10 9L8 9L8 10L7 10L7 11L5 11L5 12L3 12L3 11L2 11L2 12L3 12L3 13L5 13L5 14L9 14L9 12L14 12L14 13L15 13L15 11L14 11L14 9L15 9L15 7L16 7L16 6L15 6L15 5L14 5L14 4L15 4L15 3L14 3L14 4L12 4L12 3L11 3L11 4L10 4L10 3ZM11 4L11 5L12 5L12 7L13 7L13 6L14 6L14 7L15 7L15 6L14 6L14 5L12 5L12 4ZM12 8L12 9L11 9L11 10L10 10L10 11L11 11L11 10L12 10L12 9L14 9L14 8ZM1 9L1 10L2 10L2 9ZM19 10L19 11L20 11L20 10ZM7 11L7 12L5 12L5 13L8 13L8 12L9 12L9 11ZM21 11L21 13L20 13L20 12L19 12L19 13L18 13L18 14L19 14L19 13L20 13L20 14L21 14L21 16L23 16L23 15L22 15L22 14L21 14L21 13L22 13L22 12L23 12L23 11ZM2 15L2 17L5 17L5 16L4 16L4 15ZM16 15L16 16L14 16L14 17L12 17L12 18L11 18L11 17L10 17L10 18L11 18L11 19L12 19L12 18L14 18L14 19L13 19L13 20L14 20L14 21L15 21L15 20L16 20L16 18L14 18L14 17L16 17L16 16L18 16L18 15ZM19 15L19 16L20 16L20 15ZM17 17L17 20L20 20L20 17ZM21 17L21 20L23 20L23 19L22 19L22 17ZM23 17L23 18L24 18L24 17ZM18 18L18 19L19 19L19 18ZM9 21L9 22L10 22L10 21ZM12 22L12 25L14 25L14 24L13 24L13 22ZM16 22L16 23L17 23L17 24L18 24L18 23L19 23L19 22ZM23 22L23 23L22 23L22 24L24 24L24 22ZM0 0L0 7L7 7L7 0ZM1 1L1 6L6 6L6 1ZM2 2L2 5L5 5L5 2ZM18 0L18 7L25 7L25 0ZM19 1L19 6L24 6L24 1ZM20 2L20 5L23 5L23 2ZM0 18L0 25L7 25L7 18ZM1 19L1 24L6 24L6 19ZM2 20L2 23L5 23L5 20Z" fill="#000000"/></g></g></svg>
