<?xml version="1.0" encoding="UTF-8"?>
<svg xmlns="http://www.w3.org/2000/svg" version="1.1" width="100" height="100" viewBox="0 0 100 100"><rect x="0" y="0" width="100" height="100" fill="#ffffff"/><g transform="scale(4)"><g transform="translate(0,0)"><path fill-rule="evenodd" d="M8 0L8 4L9 4L9 5L8 5L8 7L9 7L9 6L10 6L10 9L11 9L11 10L9 10L9 11L8 11L8 10L6 10L6 9L7 9L7 8L4 8L4 9L2 9L2 8L0 8L0 9L1 9L1 10L6 10L6 11L7 11L7 12L5 12L5 13L8 13L8 14L9 14L9 15L7 15L7 14L6 14L6 15L7 15L7 16L3 16L3 17L8 17L8 18L10 18L10 17L11 17L11 19L10 19L10 20L9 20L9 19L8 19L8 21L10 21L10 23L8 23L8 25L9 25L9 24L10 24L10 23L12 23L12 21L13 21L13 22L15 22L15 24L16 24L16 23L17 23L17 24L19 24L19 25L20 25L20 21L21 21L21 22L22 22L22 21L21 21L21 19L22 19L22 20L23 20L23 23L22 23L22 25L25 25L25 24L24 24L24 22L25 22L25 21L24 21L24 20L25 20L25 19L23 19L23 18L25 18L25 15L23 15L23 10L24 10L24 9L25 9L25 8L21 8L21 9L20 9L20 8L19 8L19 9L20 9L20 10L18 10L18 11L16 11L16 9L17 9L17 5L16 5L16 3L17 3L17 2L16 2L16 3L15 3L15 5L16 5L16 7L15 7L15 6L14 6L14 3L10 3L10 2L9 2L9 0ZM11 0L11 1L12 1L12 0ZM13 0L13 2L14 2L14 0ZM15 0L15 1L16 1L16 0ZM10 4L10 5L11 5L11 9L12 9L12 11L10 11L10 12L8 12L8 13L12 13L12 14L13 14L13 13L14 13L14 15L13 15L13 17L12 17L12 18L13 18L13 17L14 17L14 19L12 19L12 20L10 20L10 21L12 21L12 20L13 20L13 21L14 21L14 19L16 19L16 18L15 18L15 17L16 17L16 16L15 16L15 13L16 13L16 15L17 15L17 16L19 16L19 14L20 14L20 15L21 15L21 14L20 14L20 13L22 13L22 10L23 10L23 9L22 9L22 10L20 10L20 13L16 13L16 11L15 11L15 9L16 9L16 8L15 8L15 9L14 9L14 6L13 6L13 4L12 4L12 5L11 5L11 4ZM12 6L12 7L13 7L13 6ZM12 8L12 9L13 9L13 10L14 10L14 9L13 9L13 8ZM3 11L3 12L2 12L2 13L1 13L1 12L0 12L0 14L2 14L2 15L4 15L4 11ZM12 11L12 13L13 13L13 11ZM14 11L14 13L15 13L15 11ZM24 12L24 13L25 13L25 12ZM2 13L2 14L3 14L3 13ZM10 15L10 16L8 16L8 17L10 17L10 16L11 16L11 15ZM0 16L0 17L2 17L2 16ZM14 16L14 17L15 17L15 16ZM21 16L21 18L23 18L23 17L24 17L24 16L23 16L23 17L22 17L22 16ZM17 17L17 20L20 20L20 17ZM18 18L18 19L19 19L19 18ZM15 20L15 22L17 22L17 23L18 23L18 22L17 22L17 21L16 21L16 20ZM11 24L11 25L12 25L12 24ZM13 24L13 25L14 25L14 24ZM0 0L0 7L7 7L7 0ZM1 1L1 6L6 6L6 1ZM2 2L2 5L5 5L5 2ZM18 0L18 7L25 7L25 0ZM19 1L19 6L24 6L24 1ZM20 2L20 5L23 5L23 2ZM0 18L0 25L7 25L7 18ZM1 19L1 24L6 24L6 19ZM2 20L2 23L5 23L5 20Z" fill="#000000"/></g></g></svg>
