<?xml version="1.0" encoding="UTF-8"?>
<svg xmlns="http://www.w3.org/2000/svg" version="1.1" width="100" height="100" viewBox="0 0 100 100"><rect x="0" y="0" width="100" height="100" fill="#ffffff"/><g transform="scale(3.448)"><g transform="translate(0,0)"><path fill-rule="evenodd" d="M8 0L8 4L10 4L10 3L11 3L11 4L12 4L12 2L11 2L11 0ZM12 0L12 1L13 1L13 2L15 2L15 1L16 1L16 3L15 3L15 4L14 4L14 3L13 3L13 4L14 4L14 9L12 9L12 8L13 8L13 5L11 5L11 6L10 6L10 7L9 7L9 5L8 5L8 7L9 7L9 8L10 8L10 7L11 7L11 6L12 6L12 8L11 8L11 9L7 9L7 8L4 8L4 9L7 9L7 10L5 10L5 11L4 11L4 12L3 12L3 13L2 13L2 11L3 11L3 10L2 10L2 8L0 8L0 10L1 10L1 14L3 14L3 15L1 15L1 16L0 16L0 18L2 18L2 17L3 17L3 18L4 18L4 19L5 19L5 20L6 20L6 21L7 21L7 20L6 20L6 19L7 19L7 18L6 18L6 17L7 17L7 16L8 16L8 15L7 15L7 14L8 14L8 11L9 11L9 10L11 10L11 11L10 11L10 13L9 13L9 14L10 14L10 13L11 13L11 12L12 12L12 13L13 13L13 12L12 12L12 11L13 11L13 10L14 10L14 9L15 9L15 11L14 11L14 13L15 13L15 15L16 15L16 13L15 13L15 12L17 12L17 13L18 13L18 14L17 14L17 17L16 17L16 16L13 16L13 15L12 15L12 16L11 16L11 15L9 15L9 17L10 17L10 18L8 18L8 19L10 19L10 21L9 21L9 20L8 20L8 22L9 22L9 23L8 23L8 25L9 25L9 27L8 27L8 29L9 29L9 28L10 28L10 29L11 29L11 28L12 28L12 29L14 29L14 27L16 27L16 26L17 26L17 25L18 25L18 26L20 26L20 25L26 25L26 19L27 19L27 20L28 20L28 19L29 19L29 17L28 17L28 19L27 19L27 16L26 16L26 15L25 15L25 17L20 17L20 16L21 16L21 15L22 15L22 16L23 16L23 14L28 14L28 16L29 16L29 13L28 13L28 12L29 12L29 8L25 8L25 9L24 9L24 8L23 8L23 9L22 9L22 10L21 10L21 9L20 9L20 7L21 7L21 3L20 3L20 1L21 1L21 0L20 0L20 1L19 1L19 0L18 0L18 2L17 2L17 1L16 1L16 0ZM9 2L9 3L10 3L10 2ZM18 2L18 3L19 3L19 5L20 5L20 3L19 3L19 2ZM17 4L17 5L15 5L15 9L17 9L17 7L18 7L18 6L17 6L17 5L18 5L18 4ZM16 6L16 7L17 7L17 6ZM19 6L19 7L20 7L20 6ZM18 8L18 9L19 9L19 10L18 10L18 13L19 13L19 14L18 14L18 15L19 15L19 16L18 16L18 17L17 17L17 19L16 19L16 21L17 21L17 22L18 22L18 23L19 23L19 24L18 24L18 25L19 25L19 24L20 24L20 23L19 23L19 22L20 22L20 21L19 21L19 20L20 20L20 19L21 19L21 20L24 20L24 19L21 19L21 18L20 18L20 17L19 17L19 16L20 16L20 13L23 13L23 12L21 12L21 11L20 11L20 9L19 9L19 8ZM11 9L11 10L12 10L12 9ZM23 9L23 10L24 10L24 9ZM25 9L25 12L24 12L24 13L25 13L25 12L26 12L26 13L27 13L27 12L28 12L28 9ZM6 11L6 12L4 12L4 14L5 14L5 16L4 16L4 15L3 15L3 16L4 16L4 17L6 17L6 16L7 16L7 15L6 15L6 14L7 14L7 13L6 13L6 12L7 12L7 11ZM19 12L19 13L20 13L20 12ZM5 13L5 14L6 14L6 13ZM1 16L1 17L2 17L2 16ZM12 16L12 17L11 17L11 18L10 18L10 19L11 19L11 18L12 18L12 17L13 17L13 18L14 18L14 17L13 17L13 16ZM18 17L18 18L19 18L19 17ZM25 17L25 18L26 18L26 17ZM12 19L12 20L11 20L11 23L9 23L9 24L10 24L10 25L11 25L11 26L10 26L10 28L11 28L11 26L12 26L12 25L13 25L13 26L15 26L15 25L13 25L13 24L14 24L14 23L15 23L15 22L13 22L13 21L12 21L12 20L13 20L13 19ZM14 19L14 21L15 21L15 19ZM17 19L17 21L18 21L18 22L19 22L19 21L18 21L18 20L19 20L19 19ZM0 20L0 21L4 21L4 20ZM21 21L21 24L24 24L24 21ZM27 21L27 22L28 22L28 23L27 23L27 24L28 24L28 26L27 26L27 29L28 29L28 28L29 28L29 22L28 22L28 21ZM22 22L22 23L23 23L23 22ZM12 23L12 24L11 24L11 25L12 25L12 24L13 24L13 23ZM16 23L16 25L17 25L17 23ZM25 26L25 28L23 28L23 27L17 27L17 29L18 29L18 28L19 28L19 29L22 29L22 28L23 28L23 29L26 29L26 26ZM12 27L12 28L13 28L13 27ZM15 28L15 29L16 29L16 28ZM0 0L0 7L7 7L7 0ZM1 1L1 6L6 6L6 1ZM2 2L2 5L5 5L5 2ZM22 0L22 7L29 7L29 0ZM23 1L23 6L28 6L28 1ZM24 2L24 5L27 5L27 2ZM0 22L0 29L7 29L7 22ZM1 23L1 28L6 28L6 23ZM2 24L2 27L5 27L5 24Z" fill="#000000"/></g></g></svg>
