<?xml version="1.0" encoding="UTF-8"?>
<svg xmlns="http://www.w3.org/2000/svg" version="1.1" width="100" height="100" viewBox="0 0 100 100"><rect x="0" y="0" width="100" height="100" fill="#ffffff"/><g transform="scale(4)"><g transform="translate(0,0)"><path fill-rule="evenodd" d="M8 0L8 1L9 1L9 2L8 2L8 5L9 5L9 4L11 4L11 5L10 5L10 10L8 10L8 9L9 9L9 8L8 8L8 9L7 9L7 8L6 8L6 9L5 9L5 10L4 10L4 8L0 8L0 9L2 9L2 10L0 10L0 11L1 11L1 12L0 12L0 13L1 13L1 15L0 15L0 16L1 16L1 15L2 15L2 16L3 16L3 17L7 17L7 16L5 16L5 15L7 15L7 14L8 14L8 13L7 13L7 12L8 12L8 11L9 11L9 15L10 15L10 13L11 13L11 11L13 11L13 12L12 12L12 15L11 15L11 17L10 17L10 16L9 16L9 17L8 17L8 18L9 18L9 21L8 21L8 25L10 25L10 23L11 23L11 24L12 24L12 25L16 25L16 23L12 23L12 21L10 21L10 20L11 20L11 18L14 18L14 16L13 16L13 14L14 14L14 13L15 13L15 14L16 14L16 13L17 13L17 14L20 14L20 15L18 15L18 16L16 16L16 15L15 15L15 16L16 16L16 17L15 17L15 18L16 18L16 22L17 22L17 21L18 21L18 23L20 23L20 24L21 24L21 25L22 25L22 24L23 24L23 25L25 25L25 24L23 24L23 23L24 23L24 22L25 22L25 18L23 18L23 16L24 16L24 17L25 17L25 16L24 16L24 14L25 14L25 11L23 11L23 10L22 10L22 9L23 9L23 8L20 8L20 9L19 9L19 10L20 10L20 11L19 11L19 12L18 12L18 10L17 10L17 11L15 11L15 10L14 10L14 11L13 11L13 9L12 9L12 8L13 8L13 6L14 6L14 8L15 8L15 5L16 5L16 8L17 8L17 9L18 9L18 8L17 8L17 5L16 5L16 4L17 4L17 3L15 3L15 0L14 0L14 2L13 2L13 0L12 0L12 1L11 1L11 0L10 0L10 1L9 1L9 0ZM16 1L16 2L17 2L17 1ZM11 2L11 4L12 4L12 3L13 3L13 2ZM14 3L14 4L13 4L13 5L12 5L12 6L11 6L11 8L12 8L12 6L13 6L13 5L15 5L15 3ZM8 6L8 7L9 7L9 6ZM24 8L24 9L25 9L25 8ZM6 9L6 10L5 10L5 11L4 11L4 12L3 12L3 10L2 10L2 12L3 12L3 13L2 13L2 15L5 15L5 13L4 13L4 12L5 12L5 11L6 11L6 12L7 12L7 11L8 11L8 10L7 10L7 9ZM11 9L11 10L12 10L12 9ZM20 9L20 10L21 10L21 9ZM6 10L6 11L7 11L7 10ZM14 11L14 12L13 12L13 13L14 13L14 12L15 12L15 11ZM20 11L20 12L21 12L21 11ZM17 12L17 13L18 13L18 12ZM23 12L23 13L21 13L21 14L24 14L24 12ZM3 13L3 14L4 14L4 13ZM6 13L6 14L7 14L7 13ZM21 15L21 16L23 16L23 15ZM9 17L9 18L10 18L10 17ZM17 17L17 20L20 20L20 17ZM21 17L21 18L22 18L22 17ZM18 18L18 19L19 19L19 18ZM21 19L21 21L22 21L22 22L21 22L21 23L23 23L23 21L24 21L24 19ZM14 20L14 21L13 21L13 22L14 22L14 21L15 21L15 20ZM19 21L19 22L20 22L20 21ZM17 24L17 25L19 25L19 24ZM0 0L0 7L7 7L7 0ZM1 1L1 6L6 6L6 1ZM2 2L2 5L5 5L5 2ZM18 0L18 7L25 7L25 0ZM19 1L19 6L24 6L24 1ZM20 2L20 5L23 5L23 2ZM0 18L0 25L7 25L7 18ZM1 19L1 24L6 24L6 19ZM2 20L2 23L5 23L5 20Z" fill="#000000"/></g></g></svg>
