<?xml version="1.0" encoding="UTF-8"?>
<svg xmlns="http://www.w3.org/2000/svg" version="1.1" width="100" height="100" viewBox="0 0 100 100"><rect x="0" y="0" width="100" height="100" fill="#ffffff"/><g transform="scale(3.448)"><g transform="translate(0,0)"><path fill-rule="evenodd" d="M8 0L8 1L10 1L10 0ZM13 0L13 1L14 1L14 2L11 2L11 4L10 4L10 3L9 3L9 2L8 2L8 5L9 5L9 6L8 6L8 7L9 7L9 8L8 8L8 10L6 10L6 9L7 9L7 8L6 8L6 9L4 9L4 8L0 8L0 9L1 9L1 12L2 12L2 14L1 14L1 13L0 13L0 14L1 14L1 15L0 15L0 16L1 16L1 18L0 18L0 19L1 19L1 18L2 18L2 20L1 20L1 21L2 21L2 20L5 20L5 21L8 21L8 22L10 22L10 23L14 23L14 22L15 22L15 21L14 21L14 20L13 20L13 18L14 18L14 17L12 17L12 16L14 16L14 15L15 15L15 14L16 14L16 12L17 12L17 15L18 15L18 12L20 12L20 11L21 11L21 13L19 13L19 15L20 15L20 16L21 16L21 15L20 15L20 14L22 14L22 15L23 15L23 14L24 14L24 12L23 12L23 13L22 13L22 11L21 11L21 9L22 9L22 10L23 10L23 9L22 9L22 8L21 8L21 5L20 5L20 2L21 2L21 0L18 0L18 1L16 1L16 3L15 3L15 4L13 4L13 5L12 5L12 3L14 3L14 2L15 2L15 0ZM18 1L18 2L17 2L17 3L18 3L18 6L17 6L17 4L16 4L16 5L15 5L15 7L16 7L16 8L17 8L17 7L18 7L18 6L19 6L19 7L20 7L20 6L19 6L19 3L18 3L18 2L20 2L20 1ZM10 5L10 6L9 6L9 7L10 7L10 8L9 8L9 9L10 9L10 10L8 10L8 13L6 13L6 12L7 12L7 11L6 11L6 10L5 10L5 11L6 11L6 12L5 12L5 13L3 13L3 14L2 14L2 17L4 17L4 19L5 19L5 20L7 20L7 19L8 19L8 21L9 21L9 19L10 19L10 20L12 20L12 19L10 19L10 18L9 18L9 17L10 17L10 16L12 16L12 14L13 14L13 15L14 15L14 14L15 14L15 12L16 12L16 11L17 11L17 12L18 12L18 11L20 11L20 9L21 9L21 8L20 8L20 9L19 9L19 10L18 10L18 9L13 9L13 7L14 7L14 5L13 5L13 7L12 7L12 5ZM10 6L10 7L11 7L11 8L12 8L12 7L11 7L11 6ZM16 6L16 7L17 7L17 6ZM24 8L24 10L25 10L25 11L27 11L27 12L25 12L25 13L26 13L26 14L25 14L25 15L24 15L24 16L23 16L23 17L25 17L25 18L23 18L23 19L22 19L22 17L21 17L21 18L20 18L20 20L19 20L19 19L18 19L18 17L19 17L19 16L18 16L18 17L17 17L17 19L16 19L16 17L15 17L15 20L16 20L16 22L17 22L17 23L16 23L16 24L14 24L14 26L13 26L13 24L12 24L12 25L11 25L11 24L10 24L10 26L9 26L9 25L8 25L8 29L10 29L10 28L12 28L12 29L13 29L13 28L12 28L12 26L13 26L13 27L14 27L14 29L16 29L16 28L17 28L17 27L16 27L16 28L15 28L15 27L14 27L14 26L16 26L16 24L17 24L17 25L18 25L18 24L17 24L17 23L19 23L19 24L20 24L20 25L19 25L19 26L18 26L18 29L19 29L19 28L20 28L20 29L21 29L21 27L22 27L22 26L21 26L21 25L23 25L23 27L24 27L24 28L23 28L23 29L24 29L24 28L25 28L25 29L26 29L26 27L27 27L27 29L28 29L28 27L29 27L29 25L28 25L28 27L27 27L27 26L26 26L26 25L27 25L27 24L29 24L29 23L28 23L28 20L29 20L29 19L25 19L25 18L26 18L26 17L25 17L25 15L28 15L28 16L29 16L29 13L28 13L28 10L29 10L29 8L28 8L28 9L27 9L27 8ZM25 9L25 10L27 10L27 9ZM3 10L3 12L4 12L4 10ZM14 10L14 11L11 11L11 13L10 13L10 12L9 12L9 13L8 13L8 14L9 14L9 15L10 15L10 14L12 14L12 12L15 12L15 10ZM17 10L17 11L18 11L18 10ZM13 13L13 14L14 14L14 13ZM27 13L27 14L28 14L28 13ZM3 14L3 16L4 16L4 17L5 17L5 16L6 16L6 17L7 17L7 18L5 18L5 19L7 19L7 18L8 18L8 19L9 19L9 18L8 18L8 17L9 17L9 16L8 16L8 15L7 15L7 14L5 14L5 16L4 16L4 14ZM6 15L6 16L7 16L7 17L8 17L8 16L7 16L7 15ZM11 17L11 18L12 18L12 17ZM27 17L27 18L28 18L28 17ZM21 19L21 20L22 20L22 19ZM24 19L24 20L25 20L25 19ZM26 20L26 21L25 21L25 22L26 22L26 23L25 23L25 25L26 25L26 24L27 24L27 20ZM11 21L11 22L12 22L12 21ZM21 21L21 24L24 24L24 21ZM22 22L22 23L23 23L23 22ZM10 26L10 27L11 27L11 26ZM19 26L19 27L21 27L21 26ZM24 26L24 27L26 27L26 26ZM0 0L0 7L7 7L7 0ZM1 1L1 6L6 6L6 1ZM2 2L2 5L5 5L5 2ZM22 0L22 7L29 7L29 0ZM23 1L23 6L28 6L28 1ZM24 2L24 5L27 5L27 2ZM0 22L0 29L7 29L7 22ZM1 23L1 28L6 28L6 23ZM2 24L2 27L5 27L5 24Z" fill="#000000"/></g></g></svg>
