<?xml version="1.0" encoding="UTF-8"?>
<svg xmlns="http://www.w3.org/2000/svg" version="1.1" width="100" height="100" viewBox="0 0 100 100"><rect x="0" y="0" width="100" height="100" fill="#ffffff"/><g transform="scale(4)"><g transform="translate(0,0)"><path fill-rule="evenodd" d="M9 0L9 1L8 1L8 2L9 2L9 3L8 3L8 4L10 4L10 7L11 7L11 4L12 4L12 5L13 5L13 4L14 4L14 5L15 5L15 6L14 6L14 8L13 8L13 6L12 6L12 9L11 9L11 8L6 8L6 9L5 9L5 8L0 8L0 9L1 9L1 10L2 10L2 9L3 9L3 10L4 10L4 11L5 11L5 12L6 12L6 13L5 13L5 14L4 14L4 15L3 15L3 16L2 16L2 17L5 17L5 15L7 15L7 16L6 16L6 17L7 17L7 16L8 16L8 19L9 19L9 16L12 16L12 17L10 17L10 19L11 19L11 20L12 20L12 21L10 21L10 20L8 20L8 25L9 25L9 24L10 24L10 25L16 25L16 24L17 24L17 23L16 23L16 22L15 22L15 23L14 23L14 24L10 24L10 22L12 22L12 21L18 21L18 22L19 22L19 23L18 23L18 25L22 25L22 24L19 24L19 23L20 23L20 22L21 22L21 23L22 23L22 21L23 21L23 22L24 22L24 24L23 24L23 25L25 25L25 21L24 21L24 20L25 20L25 16L24 16L24 17L23 17L23 16L21 16L21 14L22 14L22 13L25 13L25 10L23 10L23 9L24 9L24 8L23 8L23 9L22 9L22 8L21 8L21 9L22 9L22 10L21 10L21 11L23 11L23 12L19 12L19 10L20 10L20 8L19 8L19 10L15 10L15 9L18 9L18 8L15 8L15 6L16 6L16 7L17 7L17 6L16 6L16 5L15 5L15 4L17 4L17 2L16 2L16 1L15 1L15 0L14 0L14 3L12 3L12 2L13 2L13 1L11 1L11 2L10 2L10 0ZM10 3L10 4L11 4L11 3ZM14 3L14 4L15 4L15 3ZM8 5L8 7L9 7L9 5ZM14 8L14 9L12 9L12 10L11 10L11 9L10 9L10 11L13 11L13 12L10 12L10 13L9 13L9 10L7 10L7 9L6 9L6 10L7 10L7 11L6 11L6 12L7 12L7 11L8 11L8 13L9 13L9 14L8 14L8 16L9 16L9 15L10 15L10 13L12 13L12 14L11 14L11 15L13 15L13 17L12 17L12 18L11 18L11 19L12 19L12 20L15 20L15 19L16 19L16 17L15 17L15 18L14 18L14 19L12 19L12 18L13 18L13 17L14 17L14 16L19 16L19 13L18 13L18 14L17 14L17 13L15 13L15 11L13 11L13 10L14 10L14 9L15 9L15 8ZM2 11L2 12L1 12L1 13L0 13L0 17L1 17L1 13L2 13L2 14L3 14L3 13L4 13L4 12L3 12L3 11ZM16 11L16 12L17 12L17 11ZM13 12L13 13L14 13L14 12ZM6 13L6 14L7 14L7 13ZM20 13L20 14L21 14L21 13ZM15 14L15 15L17 15L17 14ZM23 14L23 15L25 15L25 14ZM17 17L17 20L20 20L20 17ZM21 17L21 18L22 18L22 17ZM18 18L18 19L19 19L19 18ZM22 19L22 20L24 20L24 19ZM9 21L9 22L10 22L10 21ZM19 21L19 22L20 22L20 21ZM15 23L15 24L16 24L16 23ZM0 0L0 7L7 7L7 0ZM1 1L1 6L6 6L6 1ZM2 2L2 5L5 5L5 2ZM18 0L18 7L25 7L25 0ZM19 1L19 6L24 6L24 1ZM20 2L20 5L23 5L23 2ZM0 18L0 25L7 25L7 18ZM1 19L1 24L6 24L6 19ZM2 20L2 23L5 23L5 20Z" fill="#000000"/></g></g></svg>
