<?xml version="1.0" encoding="UTF-8"?>
<svg xmlns="http://www.w3.org/2000/svg" version="1.1" width="100" height="100" viewBox="0 0 100 100"><rect x="0" y="0" width="100" height="100" fill="#ffffff"/><g transform="scale(3.448)"><g transform="translate(0,0)"><path fill-rule="evenodd" d="M8 0L8 4L10 4L10 3L11 3L11 4L12 4L12 2L11 2L11 0ZM12 0L12 1L13 1L13 2L14 2L14 3L13 3L13 4L14 4L14 3L15 3L15 1L16 1L16 4L15 4L15 5L11 5L11 6L10 6L10 7L9 7L9 5L8 5L8 7L9 7L9 8L10 8L10 7L11 7L11 6L12 6L12 8L11 8L11 9L8 9L8 10L6 10L6 9L7 9L7 8L4 8L4 10L3 10L3 9L2 9L2 8L0 8L0 10L1 10L1 9L2 9L2 11L3 11L3 12L1 12L1 11L0 11L0 13L1 13L1 14L0 14L0 15L3 15L3 14L2 14L2 13L3 13L3 12L4 12L4 13L5 13L5 14L4 14L4 15L5 15L5 17L8 17L8 18L6 18L6 19L7 19L7 20L6 20L6 21L8 21L8 22L9 22L9 23L8 23L8 25L9 25L9 26L10 26L10 25L12 25L12 26L11 26L11 27L8 27L8 29L9 29L9 28L10 28L10 29L11 29L11 28L12 28L12 29L14 29L14 27L15 27L15 29L16 29L16 27L17 27L17 29L18 29L18 27L19 27L19 29L21 29L21 28L22 28L22 29L23 29L23 28L24 28L24 29L25 29L25 28L26 28L26 27L27 27L27 29L28 29L28 28L29 28L29 25L28 25L28 23L29 23L29 22L28 22L28 21L27 21L27 20L28 20L28 19L29 19L29 17L28 17L28 16L29 16L29 12L28 12L28 11L29 11L29 8L25 8L25 9L24 9L24 8L23 8L23 9L21 9L21 8L19 8L19 6L20 6L20 7L21 7L21 5L20 5L20 4L19 4L19 3L20 3L20 1L19 1L19 0L17 0L17 1L16 1L16 0L15 0L15 1L14 1L14 0ZM17 1L17 2L18 2L18 3L17 3L17 4L16 4L16 5L15 5L15 7L14 7L14 6L13 6L13 8L12 8L12 9L11 9L11 10L9 10L9 12L8 12L8 11L6 11L6 12L5 12L5 11L4 11L4 12L5 12L5 13L6 13L6 14L9 14L9 15L8 15L8 17L9 17L9 20L8 20L8 21L9 21L9 22L10 22L10 20L11 20L11 24L12 24L12 25L13 25L13 26L15 26L15 25L13 25L13 24L14 24L14 23L15 23L15 24L16 24L16 25L17 25L17 23L18 23L18 22L17 22L17 20L15 20L15 19L14 19L14 21L16 21L16 23L15 23L15 22L13 22L13 21L12 21L12 20L13 20L13 19L12 19L12 20L11 20L11 19L10 19L10 18L12 18L12 17L13 17L13 18L15 18L15 17L17 17L17 19L19 19L19 20L18 20L18 21L19 21L19 22L20 22L20 21L19 21L19 20L20 20L20 17L23 17L23 15L20 15L20 13L23 13L23 14L24 14L24 13L25 13L25 16L24 16L24 17L25 17L25 16L26 16L26 17L27 17L27 18L23 18L23 20L25 20L25 19L26 19L26 20L27 20L27 19L28 19L28 17L27 17L27 16L28 16L28 13L27 13L27 11L28 11L28 9L27 9L27 10L26 10L26 13L25 13L25 10L24 10L24 9L23 9L23 10L24 10L24 12L22 12L22 11L21 11L21 10L20 10L20 9L19 9L19 8L18 8L18 9L17 9L17 8L15 8L15 7L16 7L16 6L17 6L17 7L18 7L18 3L19 3L19 2L18 2L18 1ZM9 2L9 3L10 3L10 2ZM13 8L13 9L12 9L12 10L11 10L11 11L10 11L10 13L9 13L9 14L10 14L10 16L9 16L9 17L12 17L12 16L13 16L13 17L15 17L15 15L17 15L17 17L18 17L18 18L19 18L19 17L20 17L20 16L19 16L19 15L18 15L18 14L19 14L19 13L20 13L20 12L21 12L21 11L16 11L16 9L15 9L15 8ZM13 9L13 10L14 10L14 9ZM18 9L18 10L19 10L19 9ZM12 11L12 12L11 12L11 13L10 13L10 14L11 14L11 16L12 16L12 15L13 15L13 16L14 16L14 15L15 15L15 14L13 14L13 13L12 13L12 12L13 12L13 11ZM14 11L14 13L17 13L17 14L18 14L18 13L19 13L19 12L18 12L18 13L17 13L17 12L16 12L16 11ZM6 12L6 13L7 13L7 12ZM26 14L26 15L27 15L27 14ZM6 15L6 16L7 16L7 15ZM0 16L0 18L2 18L2 20L0 20L0 21L2 21L2 20L5 20L5 18L3 18L3 17L4 17L4 16ZM18 16L18 17L19 17L19 16ZM21 19L21 20L22 20L22 19ZM21 21L21 24L24 24L24 21ZM25 21L25 23L26 23L26 25L21 25L21 26L20 26L20 27L24 27L24 28L25 28L25 26L28 26L28 25L27 25L27 23L28 23L28 22L27 22L27 21ZM22 22L22 23L23 23L23 22ZM9 23L9 25L10 25L10 23ZM12 23L12 24L13 24L13 23ZM19 23L19 24L18 24L18 25L19 25L19 24L20 24L20 23ZM12 27L12 28L13 28L13 27ZM0 0L0 7L7 7L7 0ZM1 1L1 6L6 6L6 1ZM2 2L2 5L5 5L5 2ZM22 0L22 7L29 7L29 0ZM23 1L23 6L28 6L28 1ZM24 2L24 5L27 5L27 2ZM0 22L0 29L7 29L7 22ZM1 23L1 28L6 28L6 23ZM2 24L2 27L5 27L5 24Z" fill="#000000"/></g></g></svg>
