<?xml version="1.0" encoding="UTF-8"?>
<svg xmlns="http://www.w3.org/2000/svg" version="1.1" width="100" height="100" viewBox="0 0 100 100"><rect x="0" y="0" width="100" height="100" fill="#ffffff"/><g transform="scale(4)"><g transform="translate(0,0)"><path fill-rule="evenodd" d="M12 0L12 1L13 1L13 0ZM14 0L14 2L16 2L16 1L15 1L15 0ZM8 1L8 2L9 2L9 1ZM10 1L10 2L11 2L11 1ZM12 2L12 4L11 4L11 3L8 3L8 4L9 4L9 5L8 5L8 7L9 7L9 8L6 8L6 9L7 9L7 10L6 10L6 11L7 11L7 10L9 10L9 9L10 9L10 11L11 11L11 12L9 12L9 11L8 11L8 15L10 15L10 17L11 17L11 18L12 18L12 17L14 17L14 16L15 16L15 17L16 17L16 19L15 19L15 20L14 20L14 21L13 21L13 20L11 20L11 21L10 21L10 20L8 20L8 25L9 25L9 23L10 23L10 22L12 22L12 21L13 21L13 23L12 23L12 25L16 25L16 24L17 24L17 23L18 23L18 22L19 22L19 23L20 23L20 21L22 21L22 22L21 22L21 25L25 25L25 21L24 21L24 20L25 20L25 17L24 17L24 16L25 16L25 14L23 14L23 16L19 16L19 15L21 15L21 14L20 14L20 13L21 13L21 11L23 11L23 12L22 12L22 13L23 13L23 12L24 12L24 13L25 13L25 10L23 10L23 9L24 9L24 8L23 8L23 9L22 9L22 8L21 8L21 9L22 9L22 10L20 10L20 8L19 8L19 11L18 11L18 10L15 10L15 9L18 9L18 8L16 8L16 7L17 7L17 5L15 5L15 4L17 4L17 3L15 3L15 4L14 4L14 3L13 3L13 2ZM10 4L10 6L9 6L9 7L10 7L10 6L11 6L11 7L12 7L12 6L13 6L13 8L10 8L10 9L12 9L12 10L11 10L11 11L13 11L13 12L14 12L14 13L12 13L12 12L11 12L11 13L9 13L9 14L11 14L11 15L12 15L12 16L11 16L11 17L12 17L12 16L14 16L14 15L12 15L12 14L14 14L14 13L15 13L15 14L17 14L17 15L16 15L16 16L17 16L17 15L19 15L19 13L20 13L20 12L19 12L19 13L15 13L15 12L18 12L18 11L15 11L15 10L14 10L14 9L15 9L15 8L14 8L14 4L12 4L12 5L11 5L11 4ZM15 6L15 7L16 7L16 6ZM0 8L0 9L1 9L1 10L0 10L0 11L1 11L1 10L2 10L2 9L3 9L3 11L2 11L2 13L4 13L4 12L5 12L5 13L7 13L7 12L5 12L5 11L4 11L4 9L5 9L5 8ZM13 8L13 9L14 9L14 8ZM3 11L3 12L4 12L4 11ZM14 11L14 12L15 12L15 11ZM0 12L0 17L1 17L1 12ZM11 13L11 14L12 14L12 13ZM2 14L2 15L4 15L4 14ZM6 14L6 15L7 15L7 14ZM3 16L3 17L5 17L5 16ZM6 16L6 17L7 17L7 16ZM8 17L8 19L10 19L10 18L9 18L9 17ZM17 17L17 20L20 20L20 17ZM21 17L21 20L23 20L23 18L24 18L24 17ZM18 18L18 19L19 19L19 18ZM16 21L16 23L17 23L17 21ZM14 22L14 23L13 23L13 24L15 24L15 22ZM22 22L22 24L24 24L24 22ZM10 24L10 25L11 25L11 24ZM0 0L0 7L7 7L7 0ZM1 1L1 6L6 6L6 1ZM2 2L2 5L5 5L5 2ZM18 0L18 7L25 7L25 0ZM19 1L19 6L24 6L24 1ZM20 2L20 5L23 5L23 2ZM0 18L0 25L7 25L7 18ZM1 19L1 24L6 24L6 19ZM2 20L2 23L5 23L5 20Z" fill="#000000"/></g></g></svg>
