<?xml version="1.0" encoding="UTF-8"?>
<svg xmlns="http://www.w3.org/2000/svg" version="1.1" width="100" height="100" viewBox="0 0 100 100"><rect x="0" y="0" width="100" height="100" fill="#ffffff"/><g transform="scale(3.448)"><g transform="translate(0,0)"><path fill-rule="evenodd" d="M8 0L8 1L10 1L10 0ZM13 0L13 2L11 2L11 4L10 4L10 3L9 3L9 2L8 2L8 5L9 5L9 6L8 6L8 7L9 7L9 8L8 8L8 9L9 9L9 10L5 10L5 9L4 9L4 8L0 8L0 9L4 9L4 10L2 10L2 11L1 11L1 10L0 10L0 11L1 11L1 12L0 12L0 13L1 13L1 14L0 14L0 15L2 15L2 16L1 16L1 18L0 18L0 19L1 19L1 18L3 18L3 19L2 19L2 20L1 20L1 21L2 21L2 20L3 20L3 19L8 19L8 16L6 16L6 17L5 17L5 16L4 16L4 17L2 17L2 16L3 16L3 14L4 14L4 15L9 15L9 14L10 14L10 15L11 15L11 14L12 14L12 16L11 16L11 17L12 17L12 18L11 18L11 19L10 19L10 18L9 18L9 19L10 19L10 21L8 21L8 20L6 20L6 21L8 21L8 22L10 22L10 21L12 21L12 22L11 22L11 23L14 23L14 22L15 22L15 21L16 21L16 22L17 22L17 21L18 21L18 22L19 22L19 23L18 23L18 24L17 24L17 25L15 25L15 24L14 24L14 26L13 26L13 24L12 24L12 25L11 25L11 27L10 27L10 26L9 26L9 25L10 25L10 24L9 24L9 25L8 25L8 29L9 29L9 28L10 28L10 29L11 29L11 28L12 28L12 29L13 29L13 28L12 28L12 26L13 26L13 27L14 27L14 29L16 29L16 28L17 28L17 27L19 27L19 28L18 28L18 29L19 29L19 28L20 28L20 29L22 29L22 26L21 26L21 27L20 27L20 26L17 26L17 25L18 25L18 24L20 24L20 25L23 25L23 28L24 28L24 29L25 29L25 28L26 28L26 27L27 27L27 29L28 29L28 27L29 27L29 25L28 25L28 27L27 27L27 25L26 25L26 24L25 24L25 21L27 21L27 22L26 22L26 23L27 23L27 24L28 24L28 19L26 19L26 20L25 20L25 18L24 18L24 17L25 17L25 16L26 16L26 15L25 15L25 16L23 16L23 18L24 18L24 20L23 20L23 19L22 19L22 17L21 17L21 20L19 20L19 18L18 18L18 19L17 19L17 17L15 17L15 21L14 21L14 20L13 20L13 18L14 18L14 17L12 17L12 16L14 16L14 15L15 15L15 16L16 16L16 15L18 15L18 12L20 12L20 13L19 13L19 15L20 15L20 16L21 16L21 14L22 14L22 15L24 15L24 14L23 14L23 13L24 13L24 12L25 12L25 11L28 11L28 10L29 10L29 8L28 8L28 10L26 10L26 9L27 9L27 8L24 8L24 10L23 10L23 9L22 9L22 8L20 8L20 7L21 7L21 4L19 4L19 6L18 6L18 7L17 7L17 6L16 6L16 7L15 7L15 6L14 6L14 5L12 5L12 3L13 3L13 4L14 4L14 3L15 3L15 5L16 5L16 3L17 3L17 4L18 4L18 3L20 3L20 2L21 2L21 0L20 0L20 2L18 2L18 3L17 3L17 2L16 2L16 3L15 3L15 1L14 1L14 0ZM18 0L18 1L19 1L19 0ZM10 5L10 6L9 6L9 7L10 7L10 8L9 8L9 9L10 9L10 10L9 10L9 12L7 12L7 11L6 11L6 12L5 12L5 14L8 14L8 13L9 13L9 12L10 12L10 13L11 13L11 11L14 11L14 12L12 12L12 14L13 14L13 15L14 15L14 14L13 14L13 13L15 13L15 11L16 11L16 13L17 13L17 12L18 12L18 11L20 11L20 12L22 12L22 13L23 13L23 12L24 12L24 11L23 11L23 10L21 10L21 9L20 9L20 10L18 10L18 9L17 9L17 10L16 10L16 8L17 8L17 7L16 7L16 8L15 8L15 7L14 7L14 6L13 6L13 7L12 7L12 5ZM10 6L10 7L11 7L11 8L12 8L12 7L11 7L11 6ZM19 6L19 7L18 7L18 8L19 8L19 7L20 7L20 6ZM6 8L6 9L7 9L7 8ZM13 9L13 10L14 10L14 11L15 11L15 9ZM17 10L17 11L18 11L18 10ZM3 11L3 12L1 12L1 13L4 13L4 11ZM22 11L22 12L23 12L23 11ZM6 12L6 13L7 13L7 12ZM26 12L26 13L25 13L25 14L27 14L27 15L29 15L29 12L28 12L28 14L27 14L27 12ZM15 14L15 15L16 15L16 14ZM18 16L18 17L19 17L19 16ZM4 17L4 18L5 18L5 17ZM6 17L6 18L7 18L7 17ZM26 17L26 18L27 18L27 17ZM11 19L11 20L12 20L12 19ZM4 20L4 21L5 21L5 20ZM21 21L21 24L24 24L24 21ZM22 22L22 23L23 23L23 22ZM25 25L25 26L24 26L24 28L25 28L25 27L26 27L26 25ZM14 26L14 27L16 27L16 26ZM0 0L0 7L7 7L7 0ZM1 1L1 6L6 6L6 1ZM2 2L2 5L5 5L5 2ZM22 0L22 7L29 7L29 0ZM23 1L23 6L28 6L28 1ZM24 2L24 5L27 5L27 2ZM0 22L0 29L7 29L7 22ZM1 23L1 28L6 28L6 23ZM2 24L2 27L5 27L5 24Z" fill="#000000"/></g></g></svg>
