<?xml version="1.0" encoding="UTF-8"?>
<svg xmlns="http://www.w3.org/2000/svg" version="1.1" width="100" height="100" viewBox="0 0 100 100"><rect x="0" y="0" width="100" height="100" fill="#ffffff"/><g transform="scale(3.03)"><g transform="translate(0,0)"><path fill-rule="evenodd" d="M9 0L9 1L8 1L8 2L9 2L9 3L8 3L8 4L10 4L10 7L11 7L11 4L12 4L12 5L13 5L13 6L12 6L12 9L13 9L13 8L14 8L14 9L15 9L15 10L17 10L17 9L19 9L19 10L18 10L18 11L19 11L19 10L20 10L20 11L21 11L21 12L20 12L20 13L19 13L19 12L17 12L17 11L16 11L16 12L17 12L17 13L19 13L19 14L16 14L16 13L12 13L12 11L13 11L13 10L11 10L11 11L10 11L10 9L11 9L11 8L6 8L6 9L5 9L5 8L0 8L0 11L1 11L1 12L0 12L0 14L1 14L1 15L0 15L0 18L2 18L2 19L0 19L0 25L1 25L1 22L2 22L2 21L1 21L1 20L2 20L2 19L4 19L4 18L5 18L5 19L7 19L7 20L6 20L6 21L5 21L5 20L3 20L3 21L5 21L5 23L4 23L4 22L3 22L3 23L2 23L2 25L8 25L8 27L9 27L9 28L8 28L8 33L9 33L9 32L10 32L10 33L11 33L11 29L12 29L12 30L13 30L13 31L12 31L12 33L13 33L13 32L14 32L14 33L15 33L15 32L14 32L14 31L17 31L17 29L18 29L18 31L19 31L19 30L21 30L21 31L20 31L20 32L19 32L19 33L20 33L20 32L22 32L22 33L25 33L25 32L24 32L24 31L27 31L27 30L26 30L26 29L28 29L28 30L30 30L30 31L28 31L28 33L29 33L29 32L31 32L31 33L32 33L32 32L31 32L31 30L33 30L33 28L32 28L32 29L29 29L29 28L31 28L31 27L32 27L32 26L31 26L31 27L29 27L29 26L30 26L30 25L29 25L29 24L31 24L31 25L32 25L32 22L33 22L33 20L31 20L31 19L32 19L32 18L33 18L33 16L32 16L32 14L33 14L33 13L32 13L32 10L33 10L33 9L32 9L32 8L31 8L31 9L30 9L30 8L29 8L29 9L30 9L30 10L31 10L31 11L30 11L30 12L31 12L31 13L30 13L30 15L29 15L29 16L28 16L28 14L27 14L27 13L28 13L28 12L27 12L27 13L26 13L26 8L25 8L25 6L24 6L24 9L23 9L23 6L22 6L22 5L20 5L20 4L21 4L21 3L22 3L22 4L23 4L23 5L24 5L24 4L25 4L25 3L24 3L24 2L25 2L25 1L24 1L24 0L21 0L21 3L20 3L20 4L19 4L19 1L20 1L20 0L19 0L19 1L17 1L17 0L15 0L15 1L17 1L17 2L16 2L16 4L12 4L12 2L13 2L13 1L11 1L11 2L10 2L10 0ZM23 1L23 2L22 2L22 3L23 3L23 2L24 2L24 1ZM14 2L14 3L15 3L15 2ZM17 2L17 3L18 3L18 2ZM10 3L10 4L11 4L11 3ZM16 4L16 5L19 5L19 7L20 7L20 8L19 8L19 9L20 9L20 10L21 10L21 11L22 11L22 12L21 12L21 13L20 13L20 14L19 14L19 17L17 17L17 16L18 16L18 15L14 15L14 16L13 16L13 17L12 17L12 15L13 15L13 14L12 14L12 13L11 13L11 12L10 12L10 13L8 13L8 15L5 15L5 11L6 11L6 12L8 12L8 11L6 11L6 10L7 10L7 9L6 9L6 10L5 10L5 11L4 11L4 10L3 10L3 9L1 9L1 10L2 10L2 12L1 12L1 13L2 13L2 16L1 16L1 17L5 17L5 18L7 18L7 17L5 17L5 16L8 16L8 17L9 17L9 16L10 16L10 15L11 15L11 17L10 17L10 19L9 19L9 18L8 18L8 20L7 20L7 21L6 21L6 22L9 22L9 21L10 21L10 23L6 23L6 24L8 24L8 25L9 25L9 27L10 27L10 28L9 28L9 29L10 29L10 28L11 28L11 26L13 26L13 27L12 27L12 29L15 29L15 30L16 30L16 29L17 29L17 28L18 28L18 29L19 29L19 28L18 28L18 27L20 27L20 26L17 26L17 28L16 28L16 29L15 29L15 28L14 28L14 27L15 27L15 26L16 26L16 25L14 25L14 24L17 24L17 25L20 25L20 24L21 24L21 27L22 27L22 28L20 28L20 29L22 29L22 32L23 32L23 31L24 31L24 30L25 30L25 29L24 29L24 28L23 28L23 26L24 26L24 24L25 24L25 22L26 22L26 24L27 24L27 22L29 22L29 21L31 21L31 22L32 22L32 21L31 21L31 20L29 20L29 17L30 17L30 18L32 18L32 17L30 17L30 16L29 16L29 17L28 17L28 18L27 18L27 19L26 19L26 17L27 17L27 14L26 14L26 15L25 15L25 16L26 16L26 17L25 17L25 19L26 19L26 21L25 21L25 20L24 20L24 22L23 22L23 21L22 21L22 20L23 20L23 19L24 19L24 18L23 18L23 17L24 17L24 14L25 14L25 12L23 12L23 11L25 11L25 9L24 9L24 10L23 10L23 11L22 11L22 10L21 10L21 9L22 9L22 8L21 8L21 7L22 7L22 6L21 6L21 7L20 7L20 5L19 5L19 4ZM8 5L8 7L9 7L9 5ZM13 6L13 7L14 7L14 8L15 8L15 7L16 7L16 9L17 9L17 8L18 8L18 6L17 6L17 7L16 7L16 6L15 6L15 7L14 7L14 6ZM20 8L20 9L21 9L21 8ZM27 8L27 9L28 9L28 8ZM8 9L8 10L9 10L9 9ZM28 10L28 11L29 11L29 10ZM14 11L14 12L15 12L15 11ZM2 12L2 13L3 13L3 14L4 14L4 12ZM22 12L22 13L21 13L21 16L22 16L22 17L23 17L23 15L22 15L22 13L23 13L23 14L24 14L24 13L23 13L23 12ZM6 13L6 14L7 14L7 13ZM10 13L10 14L9 14L9 15L10 15L10 14L11 14L11 13ZM31 13L31 14L32 14L32 13ZM4 15L4 16L5 16L5 15ZM14 16L14 17L15 17L15 16ZM16 17L16 18L15 18L15 19L14 19L14 20L15 20L15 21L12 21L12 19L13 19L13 18L11 18L11 19L10 19L10 21L12 21L12 22L13 22L13 23L12 23L12 25L13 25L13 24L14 24L14 23L16 23L16 22L17 22L17 21L18 21L18 24L19 24L19 22L21 22L21 24L22 24L22 26L23 26L23 22L22 22L22 21L19 21L19 18L20 18L20 20L22 20L22 19L23 19L23 18L22 18L22 19L21 19L21 18L20 18L20 17L19 17L19 18L18 18L18 20L15 20L15 19L17 19L17 17ZM27 19L27 21L26 21L26 22L27 22L27 21L29 21L29 20L28 20L28 19ZM15 21L15 22L16 22L16 21ZM10 25L10 26L11 26L11 25ZM25 25L25 28L28 28L28 25ZM26 26L26 27L27 27L27 26ZM9 30L9 31L10 31L10 30ZM17 32L17 33L18 33L18 32ZM26 32L26 33L27 33L27 32ZM0 0L0 7L7 7L7 0ZM1 1L1 6L6 6L6 1ZM2 2L2 5L5 5L5 2ZM26 0L26 7L33 7L33 0ZM27 1L27 6L32 6L32 1ZM28 2L28 5L31 5L31 2ZM0 26L0 33L7 33L7 26ZM1 27L1 32L6 32L6 27ZM2 28L2 31L5 31L5 28Z" fill="#000000"/></g></g></svg>
