<?xml version="1.0" encoding="UTF-8"?>
<svg xmlns="http://www.w3.org/2000/svg" version="1.1" width="100" height="100" viewBox="0 0 100 100"><rect x="0" y="0" width="100" height="100" fill="#ffffff"/><g transform="scale(4)"><g transform="translate(0,0)"><path fill-rule="evenodd" d="M8 0L8 1L9 1L9 2L10 2L10 3L11 3L11 1L13 1L13 2L12 2L12 4L11 4L11 5L10 5L10 4L9 4L9 5L10 5L10 8L9 8L9 6L8 6L8 8L9 8L9 10L8 10L8 9L7 9L7 8L6 8L6 9L7 9L7 10L5 10L5 8L3 8L3 9L2 9L2 8L0 8L0 10L1 10L1 11L0 11L0 17L1 17L1 15L3 15L3 16L5 16L5 17L7 17L7 16L6 16L6 15L7 15L7 14L8 14L8 15L9 15L9 14L8 14L8 13L7 13L7 12L9 12L9 13L10 13L10 12L11 12L11 11L12 11L12 13L11 13L11 14L10 14L10 16L9 16L9 17L8 17L8 18L9 18L9 20L8 20L8 22L10 22L10 23L8 23L8 25L9 25L9 24L10 24L10 25L13 25L13 24L12 24L12 21L9 21L9 20L14 20L14 21L13 21L13 23L14 23L14 24L15 24L15 25L17 25L17 24L18 24L18 25L19 25L19 24L20 24L20 25L21 25L21 24L24 24L24 25L25 25L25 21L23 21L23 20L24 20L24 19L25 19L25 16L23 16L23 15L25 15L25 14L23 14L23 13L25 13L25 10L24 10L24 9L25 9L25 8L24 8L24 9L19 9L19 8L18 8L18 9L19 9L19 10L17 10L17 9L16 9L16 8L15 8L15 9L14 9L14 11L15 11L15 13L14 13L14 12L13 12L13 11L12 11L12 10L13 10L13 8L14 8L14 7L15 7L15 5L14 5L14 7L13 7L13 5L12 5L12 4L15 4L15 3L14 3L14 0L11 0L11 1L9 1L9 0ZM16 0L16 1L17 1L17 0ZM16 2L16 3L17 3L17 2ZM11 5L11 7L12 7L12 8L13 8L13 7L12 7L12 5ZM16 6L16 7L17 7L17 6ZM3 9L3 10L2 10L2 12L1 12L1 14L3 14L3 13L4 13L4 14L5 14L5 15L6 15L6 14L7 14L7 13L6 13L6 12L7 12L7 11L8 11L8 10L7 10L7 11L6 11L6 12L5 12L5 13L4 13L4 11L5 11L5 10L4 10L4 9ZM10 9L10 10L9 10L9 11L10 11L10 10L12 10L12 9ZM19 10L19 13L17 13L17 12L18 12L18 11L17 11L17 12L16 12L16 14L17 14L17 16L18 16L18 14L19 14L19 16L20 16L20 13L21 13L21 11L23 11L23 12L22 12L22 13L23 13L23 12L24 12L24 10ZM5 13L5 14L6 14L6 13ZM12 13L12 14L11 14L11 15L13 15L13 16L12 16L12 17L10 17L10 18L15 18L15 19L14 19L14 20L16 20L16 18L15 18L15 16L14 16L14 15L13 15L13 14L14 14L14 13ZM21 15L21 16L22 16L22 15ZM13 16L13 17L14 17L14 16ZM17 17L17 20L20 20L20 17ZM21 17L21 18L22 18L22 17ZM23 17L23 19L22 19L22 20L21 20L21 21L19 21L19 22L18 22L18 21L15 21L15 22L16 22L16 24L17 24L17 23L19 23L19 22L21 22L21 23L20 23L20 24L21 24L21 23L23 23L23 21L22 21L22 20L23 20L23 19L24 19L24 17ZM18 18L18 19L19 19L19 18ZM10 23L10 24L11 24L11 23ZM0 0L0 7L7 7L7 0ZM1 1L1 6L6 6L6 1ZM2 2L2 5L5 5L5 2ZM18 0L18 7L25 7L25 0ZM19 1L19 6L24 6L24 1ZM20 2L20 5L23 5L23 2ZM0 18L0 25L7 25L7 18ZM1 19L1 24L6 24L6 19ZM2 20L2 23L5 23L5 20Z" fill="#000000"/></g></g></svg>
