<?xml version="1.0" encoding="UTF-8"?>
<svg xmlns="http://www.w3.org/2000/svg" version="1.1" width="100" height="100" viewBox="0 0 100 100"><rect x="0" y="0" width="100" height="100" fill="#ffffff"/><g transform="scale(3.448)"><g transform="translate(0,0)"><path fill-rule="evenodd" d="M9 0L9 1L11 1L11 2L9 2L9 3L8 3L8 5L9 5L9 6L8 6L8 7L9 7L9 9L8 9L8 8L5 8L5 12L6 12L6 13L4 13L4 14L3 14L3 15L4 15L4 16L2 16L2 15L1 15L1 14L2 14L2 13L3 13L3 12L2 12L2 10L4 10L4 9L2 9L2 8L0 8L0 9L2 9L2 10L1 10L1 12L0 12L0 16L2 16L2 18L1 18L1 17L0 17L0 21L1 21L1 19L3 19L3 18L4 18L4 20L2 20L2 21L4 21L4 20L5 20L5 21L8 21L8 24L9 24L9 23L11 23L11 22L10 22L10 21L8 21L8 19L9 19L9 18L10 18L10 17L11 17L11 16L10 16L10 15L11 15L11 12L12 12L12 11L13 11L13 10L11 10L11 8L10 8L10 7L11 7L11 4L12 4L12 5L13 5L13 6L12 6L12 9L13 9L13 8L14 8L14 10L15 10L15 9L16 9L16 8L14 8L14 7L15 7L15 5L16 5L16 7L17 7L17 6L18 6L18 8L17 8L17 10L18 10L18 11L19 11L19 10L20 10L20 12L19 12L19 14L20 14L20 15L18 15L18 14L15 14L15 12L16 12L16 13L17 13L17 11L14 11L14 12L13 12L13 13L12 13L12 14L13 14L13 15L12 15L12 17L13 17L13 16L14 16L14 17L15 17L15 18L12 18L12 19L11 19L11 21L12 21L12 22L13 22L13 23L12 23L12 24L11 24L11 25L9 25L9 26L10 26L10 27L11 27L11 29L12 29L12 27L13 27L13 26L11 26L11 25L14 25L14 23L16 23L16 25L15 25L15 27L16 27L16 28L15 28L15 29L18 29L18 28L17 28L17 27L19 27L19 28L20 28L20 27L19 27L19 26L20 26L20 25L26 25L26 24L25 24L25 23L27 23L27 25L28 25L28 26L27 26L27 27L25 27L25 26L21 26L21 27L22 27L22 28L21 28L21 29L22 29L22 28L23 28L23 29L24 29L24 28L26 28L26 29L27 29L27 27L28 27L28 28L29 28L29 27L28 27L28 26L29 26L29 24L28 24L28 23L27 23L27 22L29 22L29 21L28 21L28 20L29 20L29 16L28 16L28 15L26 15L26 14L27 14L27 13L26 13L26 11L27 11L27 10L28 10L28 9L26 9L26 8L24 8L24 9L23 9L23 10L22 10L22 11L21 11L21 8L20 8L20 7L21 7L21 6L20 6L20 7L19 7L19 5L21 5L21 2L20 2L20 4L19 4L19 5L16 5L16 3L17 3L17 2L16 2L16 0L13 0L13 1L12 1L12 0ZM17 0L17 1L18 1L18 3L19 3L19 0ZM20 0L20 1L21 1L21 0ZM13 1L13 2L12 2L12 4L14 4L14 2L15 2L15 3L16 3L16 2L15 2L15 1ZM9 3L9 5L10 5L10 3ZM9 6L9 7L10 7L10 6ZM13 6L13 7L14 7L14 6ZM18 8L18 9L20 9L20 8ZM6 9L6 10L7 10L7 9ZM9 9L9 10L10 10L10 11L8 11L8 12L7 12L7 11L6 11L6 12L7 12L7 13L6 13L6 14L8 14L8 15L6 15L6 16L7 16L7 17L6 17L6 18L7 18L7 19L5 19L5 20L7 20L7 19L8 19L8 18L9 18L9 17L10 17L10 16L8 16L8 15L10 15L10 13L9 13L9 12L10 12L10 11L11 11L11 10L10 10L10 9ZM25 9L25 11L26 11L26 9ZM23 10L23 11L24 11L24 10ZM1 12L1 13L2 13L2 12ZM20 12L20 14L21 14L21 13L22 13L22 12ZM24 12L24 13L25 13L25 14L23 14L23 15L21 15L21 17L20 17L20 16L18 16L18 15L17 15L17 16L18 16L18 17L17 17L17 18L16 18L16 19L15 19L15 20L14 20L14 19L12 19L12 21L14 21L14 22L15 22L15 20L16 20L16 23L17 23L17 26L16 26L16 27L17 27L17 26L19 26L19 24L20 24L20 23L19 23L19 24L18 24L18 23L17 23L17 22L19 22L19 21L20 21L20 20L21 20L21 19L20 19L20 20L19 20L19 18L18 18L18 17L20 17L20 18L22 18L22 17L26 17L26 18L25 18L25 19L26 19L26 20L25 20L25 21L26 21L26 22L27 22L27 21L26 21L26 20L28 20L28 16L27 16L27 17L26 17L26 16L25 16L25 14L26 14L26 13L25 13L25 12ZM28 12L28 14L29 14L29 12ZM8 13L8 14L9 14L9 13ZM4 14L4 15L5 15L5 14ZM15 15L15 17L16 17L16 15ZM23 15L23 16L24 16L24 15ZM4 17L4 18L5 18L5 17ZM7 17L7 18L8 18L8 17ZM17 18L17 19L18 19L18 18ZM23 18L23 19L22 19L22 20L23 20L23 19L24 19L24 18ZM17 20L17 21L18 21L18 20ZM21 21L21 24L24 24L24 21ZM22 22L22 23L23 23L23 22ZM8 27L8 29L9 29L9 27ZM0 0L0 7L7 7L7 0ZM1 1L1 6L6 6L6 1ZM2 2L2 5L5 5L5 2ZM22 0L22 7L29 7L29 0ZM23 1L23 6L28 6L28 1ZM24 2L24 5L27 5L27 2ZM0 22L0 29L7 29L7 22ZM1 23L1 28L6 28L6 23ZM2 24L2 27L5 27L5 24Z" fill="#000000"/></g></g></svg>
