<?xml version="1.0" encoding="UTF-8"?>
<svg xmlns="http://www.w3.org/2000/svg" version="1.1" width="100" height="100" viewBox="0 0 100 100"><rect x="0" y="0" width="100" height="100" fill="#ffffff"/><g transform="scale(4)"><g transform="translate(0,0)"><path fill-rule="evenodd" d="M8 0L8 1L9 1L9 6L8 6L8 8L9 8L9 6L10 6L10 8L11 8L11 9L8 9L8 11L9 11L9 10L11 10L11 12L9 12L9 13L7 13L7 12L6 12L6 11L7 11L7 10L6 10L6 9L7 9L7 8L6 8L6 9L5 9L5 8L3 8L3 9L2 9L2 8L0 8L0 9L1 9L1 10L0 10L0 11L2 11L2 10L3 10L3 9L4 9L4 10L5 10L5 11L3 11L3 14L4 14L4 15L2 15L2 14L1 14L1 13L2 13L2 12L1 12L1 13L0 13L0 17L1 17L1 15L2 15L2 16L3 16L3 17L5 17L5 16L6 16L6 17L7 17L7 16L8 16L8 15L7 15L7 14L10 14L10 15L9 15L9 17L8 17L8 18L9 18L9 20L8 20L8 22L9 22L9 23L8 23L8 25L10 25L10 24L11 24L11 25L12 25L12 22L13 22L13 23L15 23L15 22L16 22L16 23L18 23L18 24L16 24L16 25L19 25L19 24L21 24L21 25L22 25L22 24L24 24L24 25L25 25L25 22L23 22L23 21L22 21L22 19L23 19L23 18L22 18L22 19L21 19L21 17L24 17L24 21L25 21L25 16L23 16L23 15L25 15L25 14L23 14L23 15L22 15L22 14L21 14L21 13L20 13L20 12L23 12L23 11L22 11L22 10L23 10L23 9L19 9L19 8L18 8L18 9L19 9L19 10L18 10L18 13L20 13L20 14L19 14L19 15L20 15L20 16L17 16L17 15L18 15L18 14L17 14L17 8L15 8L15 6L14 6L14 7L13 7L13 6L12 6L12 5L11 5L11 4L10 4L10 3L11 3L11 2L10 2L10 0ZM13 0L13 1L14 1L14 2L13 2L13 3L12 3L12 4L15 4L15 3L17 3L17 0L16 0L16 2L15 2L15 1L14 1L14 0ZM16 5L16 7L17 7L17 5ZM11 6L11 7L12 7L12 6ZM13 8L13 9L12 9L12 11L13 11L13 13L12 13L12 14L11 14L11 13L10 13L10 14L11 14L11 15L10 15L10 16L11 16L11 17L10 17L10 19L11 19L11 21L10 21L10 20L9 20L9 21L10 21L10 23L11 23L11 21L12 21L12 19L11 19L11 17L12 17L12 18L14 18L14 17L12 17L12 16L14 16L14 15L15 15L15 13L14 13L14 12L16 12L16 11L13 11L13 10L15 10L15 8ZM24 8L24 9L25 9L25 8ZM24 10L24 11L25 11L25 10ZM4 12L4 13L5 13L5 15L6 15L6 16L7 16L7 15L6 15L6 14L7 14L7 13L6 13L6 12ZM13 13L13 14L12 14L12 15L13 15L13 14L14 14L14 13ZM20 14L20 15L21 15L21 14ZM15 16L15 17L16 17L16 16ZM17 17L17 20L20 20L20 17ZM15 18L15 19L14 19L14 20L13 20L13 22L15 22L15 19L16 19L16 18ZM18 18L18 19L19 19L19 18ZM16 21L16 22L17 22L17 21ZM19 21L19 22L18 22L18 23L20 23L20 22L21 22L21 23L22 23L22 22L21 22L21 21ZM14 24L14 25L15 25L15 24ZM0 0L0 7L7 7L7 0ZM1 1L1 6L6 6L6 1ZM2 2L2 5L5 5L5 2ZM18 0L18 7L25 7L25 0ZM19 1L19 6L24 6L24 1ZM20 2L20 5L23 5L23 2ZM0 18L0 25L7 25L7 18ZM1 19L1 24L6 24L6 19ZM2 20L2 23L5 23L5 20Z" fill="#000000"/></g></g></svg>
