<?xml version="1.0" encoding="UTF-8"?>
<svg xmlns="http://www.w3.org/2000/svg" version="1.1" width="100" height="100" viewBox="0 0 100 100"><rect x="0" y="0" width="100" height="100" fill="#ffffff"/><g transform="scale(4)"><g transform="translate(0,0)"><path fill-rule="evenodd" d="M8 0L8 4L9 4L9 3L11 3L11 4L10 4L10 5L8 5L8 7L9 7L9 10L8 10L8 12L6 12L6 13L5 13L5 11L7 11L7 10L5 10L5 11L4 11L4 9L7 9L7 8L4 8L4 9L2 9L2 8L0 8L0 11L1 11L1 12L0 12L0 14L2 14L2 16L0 16L0 17L2 17L2 16L4 16L4 17L5 17L5 16L4 16L4 15L3 15L3 14L2 14L2 13L3 13L3 11L4 11L4 13L5 13L5 14L6 14L6 15L7 15L7 14L6 14L6 13L8 13L8 18L10 18L10 19L11 19L11 20L9 20L9 19L8 19L8 21L11 21L11 23L8 23L8 25L10 25L10 24L11 24L11 23L12 23L12 22L14 22L14 21L15 21L15 22L17 22L17 23L19 23L19 24L18 24L18 25L19 25L19 24L21 24L21 23L19 23L19 22L20 22L20 21L21 21L21 22L22 22L22 21L23 21L23 20L24 20L24 21L25 21L25 20L24 20L24 19L23 19L23 18L25 18L25 15L22 15L22 14L21 14L21 13L24 13L24 12L25 12L25 11L24 11L24 12L23 12L23 10L22 10L22 9L25 9L25 8L21 8L21 9L20 9L20 8L19 8L19 9L20 9L20 10L19 10L19 12L17 12L17 11L16 11L16 9L15 9L15 8L17 8L17 6L16 6L16 7L15 7L15 5L16 5L16 3L17 3L17 1L16 1L16 0L15 0L15 1L14 1L14 0L13 0L13 1L14 1L14 2L15 2L15 5L14 5L14 3L13 3L13 2L10 2L10 1L12 1L12 0L10 0L10 1L9 1L9 0ZM15 1L15 2L16 2L16 1ZM12 3L12 5L10 5L10 6L9 6L9 7L10 7L10 8L13 8L13 9L12 9L12 10L13 10L13 9L14 9L14 11L12 11L12 12L11 12L11 11L10 11L10 10L11 10L11 9L10 9L10 10L9 10L9 11L10 11L10 12L9 12L9 13L10 13L10 14L9 14L9 15L11 15L11 13L12 13L12 15L13 15L13 17L11 17L11 16L9 16L9 17L10 17L10 18L12 18L12 20L11 20L11 21L12 21L12 20L13 20L13 21L14 21L14 18L15 18L15 21L16 21L16 18L15 18L15 17L14 17L14 16L16 16L16 15L15 15L15 13L17 13L17 15L18 15L18 14L19 14L19 16L21 16L21 21L22 21L22 15L21 15L21 14L20 14L20 13L21 13L21 12L22 12L22 11L21 11L21 10L20 10L20 11L21 11L21 12L20 12L20 13L17 13L17 12L15 12L15 13L14 13L14 11L15 11L15 9L14 9L14 8L15 8L15 7L14 7L14 6L13 6L13 3ZM10 6L10 7L11 7L11 6ZM12 6L12 7L13 7L13 6ZM12 12L12 13L13 13L13 15L14 15L14 13L13 13L13 12ZM6 16L6 17L7 17L7 16ZM23 16L23 17L24 17L24 16ZM13 17L13 18L14 18L14 17ZM17 17L17 20L20 20L20 17ZM18 18L18 19L19 19L19 18ZM23 22L23 23L22 23L22 25L25 25L25 24L24 24L24 22ZM14 23L14 25L16 25L16 23ZM0 0L0 7L7 7L7 0ZM1 1L1 6L6 6L6 1ZM2 2L2 5L5 5L5 2ZM18 0L18 7L25 7L25 0ZM19 1L19 6L24 6L24 1ZM20 2L20 5L23 5L23 2ZM0 18L0 25L7 25L7 18ZM1 19L1 24L6 24L6 19ZM2 20L2 23L5 23L5 20Z" fill="#000000"/></g></g></svg>
