<?xml version="1.0" encoding="UTF-8"?>
<svg xmlns="http://www.w3.org/2000/svg" version="1.1" width="100" height="100" viewBox="0 0 100 100"><rect x="0" y="0" width="100" height="100" fill="#ffffff"/><g transform="scale(3.448)"><g transform="translate(0,0)"><path fill-rule="evenodd" d="M10 0L10 2L11 2L11 0ZM12 0L12 1L13 1L13 2L12 2L12 4L16 4L16 1L17 1L17 0L16 0L16 1L13 1L13 0ZM19 0L19 1L18 1L18 2L19 2L19 1L20 1L20 4L19 4L19 3L17 3L17 5L15 5L15 6L14 6L14 5L11 5L11 6L10 6L10 4L11 4L11 3L8 3L8 4L9 4L9 5L8 5L8 7L9 7L9 8L6 8L6 9L5 9L5 8L0 8L0 11L2 11L2 10L3 10L3 9L4 9L4 10L5 10L5 11L8 11L8 12L9 12L9 13L7 13L7 12L6 12L6 13L3 13L3 12L4 12L4 11L3 11L3 12L2 12L2 14L6 14L6 15L1 15L1 14L0 14L0 21L1 21L1 17L2 17L2 16L5 16L5 17L3 17L3 18L4 18L4 19L3 19L3 20L4 20L4 19L7 19L7 20L5 20L5 21L7 21L7 20L8 20L8 19L9 19L9 21L8 21L8 23L9 23L9 24L8 24L8 29L11 29L11 28L10 28L10 26L11 26L11 25L12 25L12 26L13 26L13 27L12 27L12 29L13 29L13 28L14 28L14 29L16 29L16 27L19 27L19 28L21 28L21 29L22 29L22 27L23 27L23 28L24 28L24 29L25 29L25 28L26 28L26 29L27 29L27 28L28 28L28 26L29 26L29 23L27 23L27 26L22 26L22 25L26 25L26 23L25 23L25 20L24 20L24 19L23 19L23 18L25 18L25 19L26 19L26 18L29 18L29 16L28 16L28 15L27 15L27 14L29 14L29 11L28 11L28 13L27 13L27 12L26 12L26 11L27 11L27 10L29 10L29 9L28 9L28 8L27 8L27 9L26 9L26 8L25 8L25 9L24 9L24 8L23 8L23 9L22 9L22 8L21 8L21 6L20 6L20 9L19 9L19 5L20 5L20 4L21 4L21 1L20 1L20 0ZM8 1L8 2L9 2L9 1ZM13 2L13 3L15 3L15 2ZM18 4L18 5L17 5L17 8L16 8L16 6L15 6L15 8L14 8L14 6L13 6L13 7L12 7L12 6L11 6L11 7L12 7L12 9L11 9L11 8L10 8L10 9L9 9L9 10L8 10L8 11L9 11L9 12L11 12L11 13L9 13L9 14L7 14L7 13L6 13L6 14L7 14L7 15L6 15L6 16L7 16L7 17L6 17L6 18L7 18L7 19L8 19L8 18L10 18L10 19L11 19L11 21L9 21L9 22L10 22L10 24L11 24L11 22L13 22L13 23L12 23L12 25L14 25L14 26L16 26L16 25L17 25L17 26L18 26L18 25L20 25L20 26L19 26L19 27L21 27L21 25L20 25L20 23L18 23L18 21L20 21L20 20L21 20L21 19L22 19L22 20L23 20L23 19L22 19L22 18L21 18L21 17L25 17L25 18L26 18L26 17L25 17L25 16L23 16L23 15L24 15L24 14L22 14L22 15L20 15L20 14L21 14L21 13L26 13L26 12L25 12L25 11L26 11L26 10L24 10L24 12L21 12L21 11L23 11L23 10L22 10L22 9L20 9L20 10L19 10L19 11L20 11L20 12L18 12L18 9L17 9L17 8L18 8L18 5L19 5L19 4ZM9 6L9 7L10 7L10 6ZM13 8L13 9L12 9L12 10L13 10L13 9L14 9L14 8ZM1 9L1 10L2 10L2 9ZM6 9L6 10L7 10L7 9ZM10 9L10 11L11 11L11 9ZM16 9L16 10L15 10L15 12L17 12L17 11L16 11L16 10L17 10L17 9ZM12 11L12 13L13 13L13 14L11 14L11 15L10 15L10 16L8 16L8 15L7 15L7 16L8 16L8 17L7 17L7 18L8 18L8 17L12 17L12 18L13 18L13 17L14 17L14 18L15 18L15 19L14 19L14 20L13 20L13 19L12 19L12 21L13 21L13 22L15 22L15 23L17 23L17 21L18 21L18 20L20 20L20 19L21 19L21 18L20 18L20 17L21 17L21 16L20 16L20 17L18 17L18 16L17 16L17 15L19 15L19 14L20 14L20 13L21 13L21 12L20 12L20 13L18 13L18 14L17 14L17 13L16 13L16 14L15 14L15 15L14 15L14 12L13 12L13 11ZM16 14L16 15L17 15L17 14ZM25 14L25 15L26 15L26 16L27 16L27 15L26 15L26 14ZM12 15L12 17L13 17L13 16L14 16L14 17L15 17L15 18L16 18L16 17L17 17L17 16L14 16L14 15ZM17 18L17 20L16 20L16 19L15 19L15 20L14 20L14 21L15 21L15 22L16 22L16 21L17 21L17 20L18 20L18 18ZM19 18L19 19L20 19L20 18ZM27 19L27 20L26 20L26 21L27 21L27 22L28 22L28 21L29 21L29 19ZM21 21L21 24L24 24L24 21ZM22 22L22 23L23 23L23 22ZM15 24L15 25L16 25L16 24ZM17 24L17 25L18 25L18 24ZM14 27L14 28L15 28L15 27ZM26 27L26 28L27 28L27 27ZM17 28L17 29L18 29L18 28ZM0 0L0 7L7 7L7 0ZM1 1L1 6L6 6L6 1ZM2 2L2 5L5 5L5 2ZM22 0L22 7L29 7L29 0ZM23 1L23 6L28 6L28 1ZM24 2L24 5L27 5L27 2ZM0 22L0 29L7 29L7 22ZM1 23L1 28L6 28L6 23ZM2 24L2 27L5 27L5 24Z" fill="#000000"/></g></g></svg>
