<?xml version="1.0" encoding="UTF-8"?>
<svg xmlns="http://www.w3.org/2000/svg" version="1.1" width="100" height="100" viewBox="0 0 100 100"><rect x="0" y="0" width="100" height="100" fill="#ffffff"/><g transform="scale(4)"><g transform="translate(0,0)"><path fill-rule="evenodd" d="M8 0L8 4L9 4L9 3L10 3L10 1L9 1L9 0ZM11 0L11 1L12 1L12 3L11 3L11 4L10 4L10 5L8 5L8 7L9 7L9 9L11 9L11 10L9 10L9 12L10 12L10 11L11 11L11 12L12 12L12 13L11 13L11 14L10 14L10 15L8 15L8 13L7 13L7 12L6 12L6 11L7 11L7 10L6 10L6 11L5 11L5 9L7 9L7 8L4 8L4 9L3 9L3 10L2 10L2 12L1 12L1 11L0 11L0 12L1 12L1 13L0 13L0 14L2 14L2 15L3 15L3 16L0 16L0 17L3 17L3 16L4 16L4 17L7 17L7 16L6 16L6 15L8 15L8 18L10 18L10 15L12 15L12 13L13 13L13 14L14 14L14 15L15 15L15 16L14 16L14 17L13 17L13 18L14 18L14 21L13 21L13 20L12 20L12 18L11 18L11 19L10 19L10 20L9 20L9 19L8 19L8 21L11 21L11 24L10 24L10 22L9 22L9 23L8 23L8 25L9 25L9 24L10 24L10 25L12 25L12 22L14 22L14 21L15 21L15 18L14 18L14 17L15 17L15 16L16 16L16 23L18 23L18 24L17 24L17 25L18 25L18 24L19 24L19 25L21 25L21 24L22 24L22 25L25 25L25 24L24 24L24 22L23 22L23 20L24 20L24 21L25 21L25 20L24 20L24 19L22 19L22 18L23 18L23 16L25 16L25 15L22 15L22 14L23 14L23 12L24 12L24 11L22 11L22 13L20 13L20 12L19 12L19 11L20 11L20 10L23 10L23 9L25 9L25 8L21 8L21 9L20 9L20 8L19 8L19 9L20 9L20 10L18 10L18 11L17 11L17 10L16 10L16 9L15 9L15 8L17 8L17 6L16 6L16 7L15 7L15 5L16 5L16 3L17 3L17 1L16 1L16 0L15 0L15 1L14 1L14 0L13 0L13 1L12 1L12 0ZM13 1L13 3L12 3L12 5L10 5L10 6L9 6L9 7L10 7L10 8L11 8L11 7L12 7L12 6L13 6L13 9L12 9L12 10L13 10L13 9L14 9L14 11L12 11L12 12L13 12L13 13L14 13L14 14L15 14L15 13L14 13L14 12L15 12L15 9L14 9L14 6L13 6L13 3L14 3L14 5L15 5L15 3L14 3L14 1ZM15 1L15 2L16 2L16 1ZM10 6L10 7L11 7L11 6ZM0 8L0 10L1 10L1 9L2 9L2 8ZM3 10L3 12L2 12L2 14L3 14L3 15L5 15L5 14L4 14L4 12L5 12L5 11L4 11L4 10ZM16 11L16 13L17 13L17 14L16 14L16 15L18 15L18 16L21 16L21 17L22 17L22 15L19 15L19 14L20 14L20 13L17 13L17 11ZM6 13L6 14L7 14L7 13ZM11 16L11 17L12 17L12 16ZM17 17L17 20L20 20L20 17ZM24 17L24 18L25 18L25 17ZM18 18L18 19L19 19L19 18ZM21 19L21 20L22 20L22 19ZM11 20L11 21L12 21L12 20ZM19 21L19 22L20 22L20 23L19 23L19 24L21 24L21 23L22 23L22 21L21 21L21 22L20 22L20 21ZM14 23L14 25L16 25L16 24L15 24L15 23ZM0 0L0 7L7 7L7 0ZM1 1L1 6L6 6L6 1ZM2 2L2 5L5 5L5 2ZM18 0L18 7L25 7L25 0ZM19 1L19 6L24 6L24 1ZM20 2L20 5L23 5L23 2ZM0 18L0 25L7 25L7 18ZM1 19L1 24L6 24L6 19ZM2 20L2 23L5 23L5 20Z" fill="#000000"/></g></g></svg>
