<?xml version="1.0" encoding="UTF-8"?>
<svg xmlns="http://www.w3.org/2000/svg" version="1.1" width="100" height="100" viewBox="0 0 100 100"><rect x="0" y="0" width="100" height="100" fill="#ffffff"/><g transform="scale(2.703)"><g transform="translate(0,0)"><path fill-rule="evenodd" d="M8 0L8 1L9 1L9 2L8 2L8 5L9 5L9 4L11 4L11 5L10 5L10 11L13 11L13 12L12 12L12 13L10 13L10 12L8 12L8 9L9 9L9 8L8 8L8 9L7 9L7 8L6 8L6 9L4 9L4 8L0 8L0 10L2 10L2 9L3 9L3 10L4 10L4 11L0 11L0 14L1 14L1 15L2 15L2 16L4 16L4 18L3 18L3 17L2 17L2 18L0 18L0 20L1 20L1 19L3 19L3 20L2 20L2 21L0 21L0 22L2 22L2 23L1 23L1 24L0 24L0 25L1 25L1 24L2 24L2 25L4 25L4 26L6 26L6 27L3 27L3 26L1 26L1 27L0 27L0 28L1 28L1 27L3 27L3 29L4 29L4 28L5 28L5 29L7 29L7 28L8 28L8 27L9 27L9 26L6 26L6 25L7 25L7 24L8 24L8 25L10 25L10 23L11 23L11 26L10 26L10 28L9 28L9 29L8 29L8 30L11 30L11 31L12 31L12 32L9 32L9 33L8 33L8 37L10 37L10 36L11 36L11 37L19 37L19 36L15 36L15 31L16 31L16 32L17 32L17 33L18 33L18 32L19 32L19 31L16 31L16 30L17 30L17 27L15 27L15 26L16 26L16 25L17 25L17 26L18 26L18 28L19 28L19 27L20 27L20 28L21 28L21 29L22 29L22 27L23 27L23 30L22 30L22 32L21 32L21 31L20 31L20 33L19 33L19 34L16 34L16 35L19 35L19 34L20 34L20 33L22 33L22 34L23 34L23 35L22 35L22 36L24 36L24 35L25 35L25 37L26 37L26 36L28 36L28 35L27 35L27 33L26 33L26 35L25 35L25 32L24 32L24 31L25 31L25 30L26 30L26 29L27 29L27 28L28 28L28 31L26 31L26 32L28 32L28 34L29 34L29 35L31 35L31 33L32 33L32 35L33 35L33 37L37 37L37 36L35 36L35 33L34 33L34 31L35 31L35 32L36 32L36 31L37 31L37 30L34 30L34 29L35 29L35 28L37 28L37 27L36 27L36 26L37 26L37 25L36 25L36 24L35 24L35 21L37 21L37 20L35 20L35 21L34 21L34 23L33 23L33 25L31 25L31 24L30 24L30 23L29 23L29 25L27 25L27 24L28 24L28 23L27 23L27 20L26 20L26 23L25 23L25 25L26 25L26 26L25 26L25 27L23 27L23 25L21 25L21 23L23 23L23 24L24 24L24 22L25 22L25 20L24 20L24 19L23 19L23 18L24 18L24 17L26 17L26 16L25 16L25 15L27 15L27 18L25 18L25 19L28 19L28 20L29 20L29 21L28 21L28 22L29 22L29 21L30 21L30 20L34 20L34 19L32 19L32 18L31 18L31 17L32 17L32 14L33 14L33 15L35 15L35 16L34 16L34 17L33 17L33 18L35 18L35 19L37 19L37 17L36 17L36 18L35 18L35 16L37 16L37 15L36 15L36 14L37 14L37 11L36 11L36 10L35 10L35 11L33 11L33 10L34 10L34 9L35 9L35 8L32 8L32 9L31 9L31 12L30 12L30 11L29 11L29 12L28 12L28 11L27 11L27 10L26 10L26 11L25 11L25 8L24 8L24 9L23 9L23 4L22 4L22 5L21 5L21 2L22 2L22 3L24 3L24 2L25 2L25 5L26 5L26 4L27 4L27 5L29 5L29 4L27 4L27 3L28 3L28 2L25 2L25 0L21 0L21 2L20 2L20 4L19 4L19 3L15 3L15 5L13 5L13 4L14 4L14 2L13 2L13 0L12 0L12 1L11 1L11 0L10 0L10 1L9 1L9 0ZM14 0L14 1L15 1L15 0ZM19 0L19 1L16 1L16 2L19 2L19 1L20 1L20 0ZM28 0L28 1L29 1L29 0ZM22 1L22 2L23 2L23 1ZM11 2L11 4L12 4L12 3L13 3L13 2ZM16 4L16 5L15 5L15 7L14 7L14 6L13 6L13 5L12 5L12 6L11 6L11 8L12 8L12 6L13 6L13 11L14 11L14 12L13 12L13 13L14 13L14 12L19 12L19 13L20 13L20 11L21 11L21 14L20 14L20 15L18 15L18 14L17 14L17 13L16 13L16 14L15 14L15 15L13 15L13 14L12 14L12 16L11 16L11 14L10 14L10 13L9 13L9 14L10 14L10 15L6 15L6 14L7 14L7 13L5 13L5 14L4 14L4 13L3 13L3 12L2 12L2 13L1 13L1 14L2 14L2 15L4 15L4 16L5 16L5 15L6 15L6 16L7 16L7 17L5 17L5 18L4 18L4 19L6 19L6 20L5 20L5 22L7 22L7 21L6 21L6 20L9 20L9 21L8 21L8 22L9 22L9 23L8 23L8 24L9 24L9 23L10 23L10 22L11 22L11 23L13 23L13 21L14 21L14 22L15 22L15 24L18 24L18 23L17 23L17 22L19 22L19 23L21 23L21 21L20 21L20 22L19 22L19 20L22 20L22 19L21 19L21 18L23 18L23 15L25 15L25 12L24 12L24 11L22 11L22 10L21 10L21 9L20 9L20 6L21 6L21 8L22 8L22 6L21 6L21 5L20 5L20 6L19 6L19 8L18 8L18 9L17 9L17 8L16 8L16 5L17 5L17 7L18 7L18 5L17 5L17 4ZM8 6L8 7L9 7L9 6ZM24 6L24 7L25 7L25 6ZM26 6L26 8L27 8L27 6ZM28 6L28 7L29 7L29 6ZM28 8L28 10L29 10L29 9L30 9L30 8ZM36 8L36 9L37 9L37 8ZM6 9L6 10L5 10L5 11L4 11L4 12L5 12L5 11L6 11L6 12L7 12L7 11L6 11L6 10L7 10L7 9ZM11 9L11 10L12 10L12 9ZM19 9L19 10L16 10L16 11L19 11L19 10L20 10L20 9ZM32 9L32 10L33 10L33 9ZM14 10L14 11L15 11L15 10ZM26 11L26 12L27 12L27 11ZM35 11L35 12L34 12L34 13L35 13L35 14L36 14L36 11ZM31 12L31 13L32 13L32 12ZM22 13L22 14L21 14L21 17L22 17L22 14L23 14L23 13ZM29 13L29 14L27 14L27 15L28 15L28 19L30 19L30 18L29 18L29 17L31 17L31 14L30 14L30 13ZM16 14L16 15L15 15L15 16L16 16L16 17L15 17L15 19L16 19L16 20L17 20L17 21L18 21L18 19L17 19L17 14ZM8 16L8 18L9 18L9 19L11 19L11 20L12 20L12 19L11 19L11 18L9 18L9 16ZM10 16L10 17L11 17L11 16ZM12 16L12 17L13 17L13 18L14 18L14 16ZM19 16L19 17L18 17L18 18L19 18L19 17L20 17L20 16ZM6 18L6 19L7 19L7 18ZM14 20L14 21L15 21L15 20ZM23 20L23 21L24 21L24 20ZM9 21L9 22L10 22L10 21ZM31 21L31 23L32 23L32 21ZM3 22L3 23L2 23L2 24L4 24L4 25L6 25L6 24L7 24L7 23L4 23L4 22ZM26 23L26 24L27 24L27 23ZM12 24L12 26L11 26L11 28L12 28L12 29L11 29L11 30L12 30L12 29L13 29L13 28L14 28L14 29L16 29L16 28L14 28L14 27L13 27L13 28L12 28L12 26L14 26L14 25L13 25L13 24ZM19 24L19 25L20 25L20 24ZM29 25L29 26L27 26L27 27L28 27L28 28L33 28L33 29L34 29L34 28L35 28L35 27L34 27L34 26L35 26L35 25L34 25L34 26L32 26L32 27L30 27L30 25ZM20 26L20 27L22 27L22 26ZM6 27L6 28L7 28L7 27ZM25 27L25 28L26 28L26 27ZM18 29L18 30L19 30L19 29ZM24 29L24 30L23 30L23 31L24 31L24 30L25 30L25 29ZM29 29L29 32L32 32L32 29ZM14 30L14 31L13 31L13 32L12 32L12 33L9 33L9 34L12 34L12 33L13 33L13 34L14 34L14 31L15 31L15 30ZM30 30L30 31L31 31L31 30ZM33 30L33 31L34 31L34 30ZM23 32L23 33L24 33L24 32ZM29 33L29 34L30 34L30 33ZM33 34L33 35L34 35L34 34ZM9 35L9 36L10 36L10 35ZM12 35L12 36L13 36L13 35ZM20 35L20 37L21 37L21 35ZM30 36L30 37L31 37L31 36ZM0 0L0 7L7 7L7 0ZM1 1L1 6L6 6L6 1ZM2 2L2 5L5 5L5 2ZM30 0L30 7L37 7L37 0ZM31 1L31 6L36 6L36 1ZM32 2L32 5L35 5L35 2ZM0 30L0 37L7 37L7 30ZM1 31L1 36L6 36L6 31ZM2 32L2 35L5 35L5 32Z" fill="#000000"/></g></g></svg>
