<?xml version="1.0" encoding="UTF-8"?>
<svg xmlns="http://www.w3.org/2000/svg" version="1.1" width="100" height="100" viewBox="0 0 100 100"><rect x="0" y="0" width="100" height="100" fill="#ffffff"/><g transform="scale(3.448)"><g transform="translate(0,0)"><path fill-rule="evenodd" d="M9 0L9 1L8 1L8 2L9 2L9 3L8 3L8 4L10 4L10 7L11 7L11 4L12 4L12 5L13 5L13 6L12 6L12 9L13 9L13 8L14 8L14 9L15 9L15 10L18 10L18 11L19 11L19 10L20 10L20 11L21 11L21 12L20 12L20 13L19 13L19 12L17 12L17 11L16 11L16 12L17 12L17 13L18 13L18 16L20 16L20 17L19 17L19 18L18 18L18 17L16 17L16 15L17 15L17 14L16 14L16 13L12 13L12 11L13 11L13 10L11 10L11 11L10 11L10 9L11 9L11 8L6 8L6 9L8 9L8 11L7 11L7 10L6 10L6 11L7 11L7 12L6 12L6 13L9 13L9 14L11 14L11 13L12 13L12 14L13 14L13 15L12 15L12 17L13 17L13 16L14 16L14 17L16 17L16 18L15 18L15 19L14 19L14 20L15 20L15 21L12 21L12 19L13 19L13 18L10 18L10 20L11 20L11 21L10 21L10 22L9 22L9 21L8 21L8 23L9 23L9 24L8 24L8 29L9 29L9 28L10 28L10 29L12 29L12 27L13 27L13 26L11 26L11 27L10 27L10 25L11 25L11 24L10 24L10 22L11 22L11 21L12 21L12 22L13 22L13 23L12 23L12 25L13 25L13 24L14 24L14 25L16 25L16 26L15 26L15 27L14 27L14 28L15 28L15 29L16 29L16 28L17 28L17 29L18 29L18 28L17 28L17 27L16 27L16 26L19 26L19 25L18 25L18 24L17 24L17 25L16 25L16 24L14 24L14 23L17 23L17 21L18 21L18 23L20 23L20 25L25 25L25 26L21 26L21 27L20 27L20 28L21 28L21 29L22 29L22 28L26 28L26 29L27 29L27 28L28 28L28 26L29 26L29 25L28 25L28 24L26 24L26 23L25 23L25 20L24 20L24 19L26 19L26 18L29 18L29 16L28 16L28 15L27 15L27 16L26 16L26 14L29 14L29 12L26 12L26 10L29 10L29 9L28 9L28 8L27 8L27 9L26 9L26 8L25 8L25 9L24 9L24 8L23 8L23 9L22 9L22 8L20 8L20 7L21 7L21 6L20 6L20 7L19 7L19 5L20 5L20 4L21 4L21 2L20 2L20 4L19 4L19 3L17 3L17 2L16 2L16 4L12 4L12 2L13 2L13 1L11 1L11 2L10 2L10 0ZM15 0L15 1L17 1L17 0ZM19 0L19 1L20 1L20 0ZM14 2L14 3L15 3L15 2ZM10 3L10 4L11 4L11 3ZM16 4L16 5L17 5L17 7L16 7L16 6L15 6L15 7L14 7L14 6L13 6L13 7L14 7L14 8L15 8L15 7L16 7L16 9L17 9L17 8L19 8L19 9L18 9L18 10L19 10L19 9L20 9L20 10L22 10L22 11L23 11L23 12L21 12L21 13L20 13L20 14L19 14L19 15L20 15L20 16L21 16L21 17L20 17L20 18L19 18L19 20L18 20L18 19L15 19L15 20L18 20L18 21L20 21L20 20L23 20L23 19L24 19L24 18L21 18L21 17L25 17L25 18L26 18L26 17L25 17L25 15L24 15L24 14L23 14L23 15L24 15L24 16L22 16L22 14L21 14L21 13L26 13L26 12L24 12L24 11L23 11L23 10L22 10L22 9L20 9L20 8L19 8L19 7L18 7L18 5L19 5L19 4ZM8 5L8 7L9 7L9 5ZM0 8L0 9L2 9L2 10L0 10L0 11L2 11L2 12L3 12L3 13L1 13L1 12L0 12L0 13L1 13L1 14L0 14L0 16L2 16L2 17L0 17L0 21L1 21L1 18L2 18L2 19L3 19L3 21L5 21L5 20L6 20L6 21L7 21L7 20L6 20L6 19L8 19L8 20L9 20L9 17L11 17L11 16L8 16L8 15L7 15L7 14L6 14L6 15L5 15L5 13L4 13L4 12L5 12L5 10L4 10L4 11L3 11L3 9L5 9L5 8ZM14 11L14 12L15 12L15 11ZM10 12L10 13L11 13L11 12ZM2 14L2 15L3 15L3 16L4 16L4 17L5 17L5 18L4 18L4 20L5 20L5 18L8 18L8 16L7 16L7 15L6 15L6 16L4 16L4 15L3 15L3 14ZM20 14L20 15L21 15L21 14ZM14 15L14 16L15 16L15 15ZM6 16L6 17L7 17L7 16ZM20 18L20 19L21 19L21 18ZM27 19L27 20L26 20L26 21L27 21L27 22L28 22L28 21L29 21L29 19ZM15 21L15 22L16 22L16 21ZM21 21L21 24L24 24L24 21ZM22 22L22 23L23 23L23 22ZM9 24L9 25L10 25L10 24ZM26 25L26 26L25 26L25 27L26 27L26 28L27 28L27 27L26 27L26 26L27 26L27 25ZM15 27L15 28L16 28L16 27ZM21 27L21 28L22 28L22 27ZM0 0L0 7L7 7L7 0ZM1 1L1 6L6 6L6 1ZM2 2L2 5L5 5L5 2ZM22 0L22 7L29 7L29 0ZM23 1L23 6L28 6L28 1ZM24 2L24 5L27 5L27 2ZM0 22L0 29L7 29L7 22ZM1 23L1 28L6 28L6 23ZM2 24L2 27L5 27L5 24Z" fill="#000000"/></g></g></svg>
