<?xml version="1.0" encoding="UTF-8"?>
<svg xmlns="http://www.w3.org/2000/svg" version="1.1" width="100" height="100" viewBox="0 0 100 100"><rect x="0" y="0" width="100" height="100" fill="#ffffff"/><g transform="scale(3.448)"><g transform="translate(0,0)"><path fill-rule="evenodd" d="M8 0L8 1L10 1L10 0ZM13 0L13 2L11 2L11 4L10 4L10 3L9 3L9 2L8 2L8 5L9 5L9 6L8 6L8 7L9 7L9 8L8 8L8 10L6 10L6 11L5 11L5 10L4 10L4 11L3 11L3 12L2 12L2 11L1 11L1 13L2 13L2 14L1 14L1 15L2 15L2 16L0 16L0 17L2 17L2 20L1 20L1 21L8 21L8 22L9 22L9 24L10 24L10 27L9 27L9 25L8 25L8 29L9 29L9 28L10 28L10 29L11 29L11 28L12 28L12 29L13 29L13 28L12 28L12 26L13 26L13 27L14 27L14 29L16 29L16 28L17 28L17 27L19 27L19 28L18 28L18 29L19 29L19 28L20 28L20 29L22 29L22 26L21 26L21 27L20 27L20 26L17 26L17 25L18 25L18 24L20 24L20 25L24 25L24 26L23 26L23 28L24 28L24 29L25 29L25 28L26 28L26 25L25 25L25 21L27 21L27 22L26 22L26 23L27 23L27 24L28 24L28 21L29 21L29 19L26 19L26 17L25 17L25 16L26 16L26 15L28 15L28 16L27 16L27 17L29 17L29 13L28 13L28 12L26 12L26 13L25 13L25 15L24 15L24 14L23 14L23 13L24 13L24 12L25 12L25 11L28 11L28 10L29 10L29 8L28 8L28 9L27 9L27 8L24 8L24 10L23 10L23 9L22 9L22 8L21 8L21 4L19 4L19 6L18 6L18 7L17 7L17 6L16 6L16 7L15 7L15 6L14 6L14 5L12 5L12 3L13 3L13 4L14 4L14 3L15 3L15 5L16 5L16 3L17 3L17 4L18 4L18 3L20 3L20 2L21 2L21 0L20 0L20 2L18 2L18 3L17 3L17 2L16 2L16 3L15 3L15 1L14 1L14 0ZM18 0L18 1L19 1L19 0ZM10 5L10 6L9 6L9 7L10 7L10 8L9 8L9 9L10 9L10 10L9 10L9 12L8 12L8 11L6 11L6 12L8 12L8 13L5 13L5 12L4 12L4 14L9 14L9 15L6 15L6 16L7 16L7 17L6 17L6 18L7 18L7 19L6 19L6 20L7 20L7 19L8 19L8 17L9 17L9 16L10 16L10 17L11 17L11 18L12 18L12 17L14 17L14 18L13 18L13 20L14 20L14 21L15 21L15 22L14 22L14 23L11 23L11 25L12 25L12 24L13 24L13 26L14 26L14 27L16 27L16 26L14 26L14 24L15 24L15 25L17 25L17 24L18 24L18 23L19 23L19 22L18 22L18 21L17 21L17 22L16 22L16 21L15 21L15 17L17 17L17 19L18 19L18 18L19 18L19 20L21 20L21 17L22 17L22 19L24 19L24 20L26 20L26 19L24 19L24 18L25 18L25 17L24 17L24 18L23 18L23 15L22 15L22 14L21 14L21 16L20 16L20 15L19 15L19 13L20 13L20 12L22 12L22 13L23 13L23 12L24 12L24 11L23 11L23 10L21 10L21 9L20 9L20 10L18 10L18 9L17 9L17 10L16 10L16 8L17 8L17 7L16 7L16 8L15 8L15 7L14 7L14 6L13 6L13 7L12 7L12 5ZM10 6L10 7L11 7L11 8L12 8L12 7L11 7L11 6ZM19 6L19 7L18 7L18 8L20 8L20 6ZM0 8L0 10L1 10L1 9L2 9L2 10L3 10L3 9L4 9L4 8ZM6 8L6 9L7 9L7 8ZM13 9L13 10L14 10L14 11L11 11L11 13L10 13L10 12L9 12L9 13L10 13L10 14L12 14L12 16L11 16L11 17L12 17L12 16L14 16L14 15L15 15L15 16L16 16L16 15L18 15L18 12L19 12L19 11L18 11L18 10L17 10L17 11L18 11L18 12L17 12L17 13L16 13L16 11L15 11L15 9ZM25 9L25 10L26 10L26 9ZM20 10L20 11L21 11L21 10ZM14 11L14 12L12 12L12 14L13 14L13 15L14 15L14 14L13 14L13 13L15 13L15 11ZM22 11L22 12L23 12L23 11ZM26 13L26 14L27 14L27 13ZM2 14L2 15L3 15L3 14ZM15 14L15 15L16 15L16 14ZM2 16L2 17L3 17L3 19L4 19L4 20L5 20L5 18L4 18L4 16ZM18 16L18 17L19 17L19 16ZM0 18L0 19L1 19L1 18ZM9 19L9 20L8 20L8 21L9 21L9 22L12 22L12 21L11 21L11 20L12 20L12 19L11 19L11 20L10 20L10 19ZM9 20L9 21L10 21L10 20ZM27 20L27 21L28 21L28 20ZM21 21L21 24L24 24L24 21ZM22 22L22 23L23 23L23 22ZM28 25L28 27L27 27L27 29L28 29L28 27L29 27L29 25ZM24 26L24 28L25 28L25 26ZM10 27L10 28L11 28L11 27ZM0 0L0 7L7 7L7 0ZM1 1L1 6L6 6L6 1ZM2 2L2 5L5 5L5 2ZM22 0L22 7L29 7L29 0ZM23 1L23 6L28 6L28 1ZM24 2L24 5L27 5L27 2ZM0 22L0 29L7 29L7 22ZM1 23L1 28L6 28L6 23ZM2 24L2 27L5 27L5 24Z" fill="#000000"/></g></g></svg>
