<?xml version="1.0" encoding="UTF-8"?>
<svg xmlns="http://www.w3.org/2000/svg" version="1.1" width="100" height="100" viewBox="0 0 100 100"><rect x="0" y="0" width="100" height="100" fill="#ffffff"/><g transform="scale(4)"><g transform="translate(0,0)"><path fill-rule="evenodd" d="M9 0L9 1L8 1L8 2L9 2L9 3L8 3L8 4L9 4L9 3L10 3L10 4L11 4L11 5L10 5L10 7L9 7L9 5L8 5L8 7L9 7L9 8L6 8L6 9L5 9L5 8L0 8L0 9L2 9L2 11L1 11L1 13L0 13L0 17L1 17L1 13L2 13L2 14L3 14L3 15L2 15L2 17L3 17L3 15L4 15L4 16L5 16L5 17L8 17L8 19L9 19L9 20L8 20L8 25L10 25L10 24L9 24L9 23L10 23L10 22L12 22L12 23L11 23L11 24L12 24L12 25L15 25L15 24L17 24L17 23L18 23L18 22L19 22L19 25L22 25L22 24L20 24L20 22L21 22L21 23L22 23L22 21L23 21L23 22L24 22L24 24L23 24L23 25L25 25L25 21L24 21L24 19L25 19L25 14L23 14L23 16L22 16L22 17L21 17L21 16L20 16L20 13L24 13L24 12L25 12L25 10L23 10L23 9L24 9L24 8L23 8L23 9L22 9L22 8L21 8L21 9L22 9L22 10L23 10L23 11L24 11L24 12L21 12L21 10L20 10L20 8L19 8L19 10L17 10L17 9L18 9L18 8L17 8L17 9L16 9L16 7L17 7L17 4L16 4L16 5L15 5L15 2L17 2L17 0L16 0L16 1L14 1L14 3L13 3L13 2L12 2L12 4L11 4L11 3L10 3L10 2L11 2L11 1L12 1L12 0L11 0L11 1L10 1L10 0ZM12 4L12 5L11 5L11 8L10 8L10 9L9 9L9 11L8 11L8 12L7 12L7 11L6 11L6 10L8 10L8 9L6 9L6 10L5 10L5 9L3 9L3 10L4 10L4 12L3 12L3 11L2 11L2 13L4 13L4 12L5 12L5 11L6 11L6 12L7 12L7 13L6 13L6 14L7 14L7 15L5 15L5 14L4 14L4 15L5 15L5 16L9 16L9 17L10 17L10 18L9 18L9 19L10 19L10 20L12 20L12 19L13 19L13 20L15 20L15 19L16 19L16 18L15 18L15 17L14 17L14 16L15 16L15 13L17 13L17 14L16 14L16 16L17 16L17 14L18 14L18 16L19 16L19 13L20 13L20 12L19 12L19 13L17 13L17 12L18 12L18 11L17 11L17 10L16 10L16 9L15 9L15 10L14 10L14 9L13 9L13 8L15 8L15 7L16 7L16 6L15 6L15 5L14 5L14 4ZM12 5L12 7L13 7L13 6L14 6L14 7L15 7L15 6L14 6L14 5ZM11 9L11 10L10 10L10 11L11 11L11 10L12 10L12 9ZM13 10L13 11L12 11L12 12L9 12L9 13L8 13L8 14L9 14L9 13L11 13L11 14L12 14L12 15L13 15L13 14L12 14L12 13L14 13L14 12L17 12L17 11L16 11L16 10L15 10L15 11L14 11L14 10ZM19 10L19 11L20 11L20 10ZM13 11L13 12L14 12L14 11ZM9 15L9 16L10 16L10 15ZM11 16L11 18L12 18L12 17L13 17L13 18L14 18L14 17L13 17L13 16ZM17 17L17 20L20 20L20 17ZM22 17L22 18L24 18L24 17ZM18 18L18 19L19 19L19 18ZM22 19L22 20L23 20L23 19ZM12 21L12 22L13 22L13 24L14 24L14 23L15 23L15 22L16 22L16 23L17 23L17 21ZM19 21L19 22L20 22L20 21ZM0 0L0 7L7 7L7 0ZM1 1L1 6L6 6L6 1ZM2 2L2 5L5 5L5 2ZM18 0L18 7L25 7L25 0ZM19 1L19 6L24 6L24 1ZM20 2L20 5L23 5L23 2ZM0 18L0 25L7 25L7 18ZM1 19L1 24L6 24L6 19ZM2 20L2 23L5 23L5 20Z" fill="#000000"/></g></g></svg>
